<?xml version="1.0" encoding="UTF-8"?>
<!DOCTYPE svg PUBLIC "-//W3C//DTD SVG 1.1//EN" "http://www.w3.org/Graphics/SVG/1.1/DTD/svg11.dtd">
<svg xmlns="http://www.w3.org/2000/svg" version="1.1" width="276px" height="187px" style="shape-rendering:geometricPrecision; text-rendering:geometricPrecision; image-rendering:optimizeQuality; fill-rule:evenodd; clip-rule:evenodd" xmlns:xlink="http://www.w3.org/1999/xlink">
<g><path style="opacity:1" fill="#3993ee" d="M -0.5,-0.5 C 3.5,-0.5 7.5,-0.5 11.5,-0.5C 10.3915,0.28997 9.05814,0.78997 7.5,1C 12.1667,1.33333 16.8333,1.66667 21.5,2C 20.8333,2.33333 20.1667,2.66667 19.5,3C 21.5,3.33333 23.5,3.66667 25.5,4C 24.8333,4.33333 24.1667,4.66667 23.5,5C 28.1667,5.33333 32.8333,5.66667 37.5,6C 36.8333,6.33333 36.1667,6.66667 35.5,7C 37.5,7.33333 39.5,7.66667 41.5,8C 40.8333,8.33333 40.1667,8.66667 39.5,9C 46.2029,9.17911 51.5362,10.1791 55.5,12C 54.1667,12.3333 52.8333,12.6667 51.5,13C 56.1667,13.3333 60.8333,13.6667 65.5,14C 64.8333,14.3333 64.1667,14.6667 63.5,15C 66.1667,15.3333 68.8333,15.6667 71.5,16C 70.1667,16.3333 68.8333,16.6667 67.5,17C 72.1667,17.3333 76.8333,17.6667 81.5,18C 80.8333,18.3333 80.1667,18.6667 79.5,19C 81.5,19.3333 83.5,19.6667 85.5,20C 84.8333,20.3333 84.1667,20.6667 83.5,21C 88.1667,21.3333 92.8333,21.6667 97.5,22C 96.1667,22.3333 94.8333,22.6667 93.5,23C 97.4638,24.8209 102.797,25.8209 109.5,26C 108.833,26.3333 108.167,26.6667 107.5,27C 109.5,27.3333 111.5,27.6667 113.5,28C 112.833,28.3333 112.167,28.6667 111.5,29C 116.167,29.3333 120.833,29.6667 125.5,30C 124.833,30.3333 124.167,30.6667 123.5,31C 125.5,31.3333 127.5,31.6667 129.5,32C 128.833,32.3333 128.167,32.6667 127.5,33C 132.351,33.1745 137.018,33.6745 141.5,34.5C 104.833,34.5 68.1667,34.5 31.5,34.5C 30.5489,35.9187 30.2155,37.5853 30.5,39.5C 27.1667,38.8333 23.8333,38.1667 20.5,37.5C 20.6641,34.8127 20.4974,32.146 20,29.5C 18,28.1667 16,28.1667 14,29.5C 13.5026,32.146 13.3359,34.8127 13.5,37.5C 13.1667,37.5 12.8333,37.5 12.5,37.5C 13.5489,33.1694 11.8822,31.0027 7.5,31C 12.6292,29.1402 12.6292,28.4736 7.5,29C 5.96317,30.1096 5.2965,31.6096 5.5,33.5C 3.5,33.5 1.5,33.5 -0.5,33.5C -0.5,22.1667 -0.5,10.8333 -0.5,-0.5 Z"/></g>
<g><path style="opacity:1" fill="#3d96ee" d="M 11.5,-0.5 C 30.8333,-0.5 50.1667,-0.5 69.5,-0.5C 69.0825,0.221579 68.4158,0.721579 67.5,1C 72.1667,1.33333 76.8333,1.66667 81.5,2C 80.1667,2.33333 78.8333,2.66667 77.5,3C 80.1667,3.33333 82.8333,3.66667 85.5,4C 84.8333,4.33333 84.1667,4.66667 83.5,5C 87.5,5.33333 91.5,5.66667 95.5,6C 94.8333,6.33333 94.1667,6.66667 93.5,7C 96.1667,7.33333 98.8333,7.66667 101.5,8C 100.833,8.33333 100.167,8.66667 99.5,9C 102.833,9.33333 106.167,9.66667 109.5,10C 108.833,10.3333 108.167,10.6667 107.5,11C 109.5,11.3333 111.5,11.6667 113.5,12C 112.833,12.3333 112.167,12.6667 111.5,13C 116.167,13.3333 120.833,13.6667 125.5,14C 124.833,14.3333 124.167,14.6667 123.5,15C 125.5,15.3333 127.5,15.6667 129.5,16C 128.833,16.3333 128.167,16.6667 127.5,17C 132.167,17.3333 136.833,17.6667 141.5,18C 139.5,18.3333 137.5,18.6667 135.5,19C 140.827,20.7789 147.494,21.7789 155.5,22C 154.167,22.3333 152.833,22.6667 151.5,23C 156.121,24.5376 162.121,25.5376 169.5,26C 168.833,26.3333 168.167,26.6667 167.5,27C 169.5,27.3333 171.5,27.6667 173.5,28C 172.833,28.3333 172.167,28.6667 171.5,29C 176.167,29.3333 180.833,29.6667 185.5,30C 184.833,30.3333 184.167,30.6667 183.5,31C 185.5,31.3333 187.5,31.6667 189.5,32C 188.833,32.3333 188.167,32.6667 187.5,33C 191.688,33.1762 195.688,33.6762 199.5,34.5C 180.167,34.5 160.833,34.5 141.5,34.5C 137.018,33.6745 132.351,33.1745 127.5,33C 128.167,32.6667 128.833,32.3333 129.5,32C 127.5,31.6667 125.5,31.3333 123.5,31C 124.167,30.6667 124.833,30.3333 125.5,30C 120.833,29.6667 116.167,29.3333 111.5,29C 112.167,28.6667 112.833,28.3333 113.5,28C 111.5,27.6667 109.5,27.3333 107.5,27C 108.167,26.6667 108.833,26.3333 109.5,26C 102.797,25.8209 97.4638,24.8209 93.5,23C 94.8333,22.6667 96.1667,22.3333 97.5,22C 92.8333,21.6667 88.1667,21.3333 83.5,21C 84.1667,20.6667 84.8333,20.3333 85.5,20C 83.5,19.6667 81.5,19.3333 79.5,19C 80.1667,18.6667 80.8333,18.3333 81.5,18C 76.8333,17.6667 72.1667,17.3333 67.5,17C 68.8333,16.6667 70.1667,16.3333 71.5,16C 68.8333,15.6667 66.1667,15.3333 63.5,15C 64.1667,14.6667 64.8333,14.3333 65.5,14C 60.8333,13.6667 56.1667,13.3333 51.5,13C 52.8333,12.6667 54.1667,12.3333 55.5,12C 51.5362,10.1791 46.2029,9.17911 39.5,9C 40.1667,8.66667 40.8333,8.33333 41.5,8C 39.5,7.66667 37.5,7.33333 35.5,7C 36.1667,6.66667 36.8333,6.33333 37.5,6C 32.8333,5.66667 28.1667,5.33333 23.5,5C 24.1667,4.66667 24.8333,4.33333 25.5,4C 23.5,3.66667 21.5,3.33333 19.5,3C 20.1667,2.66667 20.8333,2.33333 21.5,2C 16.8333,1.66667 12.1667,1.33333 7.5,1C 9.05814,0.78997 10.3915,0.28997 11.5,-0.5 Z"/></g>
<g><path style="opacity:1" fill="#4099ef" d="M 69.5,-0.5 C 100.167,-0.5 130.833,-0.5 161.5,-0.5C 161.082,0.221579 160.416,0.721579 159.5,1C 166.203,1.17911 171.536,2.17911 175.5,4C 174.167,4.33333 172.833,4.66667 171.5,5C 176.167,5.33333 180.833,5.66667 185.5,6C 184.833,6.33333 184.167,6.66667 183.5,7C 185.5,7.33333 187.5,7.66667 189.5,8C 188.833,8.33333 188.167,8.66667 187.5,9C 192.167,9.33333 196.833,9.66667 201.5,10C 200.167,10.3333 198.833,10.6667 197.5,11C 200.167,11.3333 202.833,11.6667 205.5,12C 204.833,12.3333 204.167,12.6667 203.5,13C 208.167,13.3333 212.833,13.6667 217.5,14C 216.167,14.3333 214.833,14.6667 213.5,15C 217.464,16.8209 222.797,17.8209 229.5,18C 228.833,18.3333 228.167,18.6667 227.5,19C 229.5,19.3333 231.5,19.6667 233.5,20C 232.833,20.3333 232.167,20.6667 231.5,21C 236.167,21.3333 240.833,21.6667 245.5,22C 244.833,22.3333 244.167,22.6667 243.5,23C 245.5,23.3333 247.5,23.6667 249.5,24C 248.833,24.3333 248.167,24.6667 247.5,25C 252.167,25.3333 256.833,25.6667 261.5,26C 260.167,26.3333 258.833,26.6667 257.5,27C 260.167,27.3333 262.833,27.6667 265.5,28C 264.833,28.3333 264.167,28.6667 263.5,29C 267.486,29.4988 271.486,29.6655 275.5,29.5C 275.5,43.5 275.5,57.5 275.5,71.5C 274.127,71.6567 272.793,71.49 271.5,71C 272.167,70.6667 272.833,70.3333 273.5,70C 269.5,69.6667 265.5,69.3333 261.5,69C 262.833,68.6667 264.167,68.3333 265.5,68C 263.288,67.2109 261.288,67.3775 259.5,68.5C 258.221,67.032 256.554,66.3653 254.5,66.5C 249.5,66.5 244.5,66.5 239.5,66.5C 239.5,56.1667 239.5,45.8333 239.5,35.5C 250.838,35.6665 262.172,35.4999 273.5,35C 248.836,34.5 224.169,34.3334 199.5,34.5C 195.688,33.6762 191.688,33.1762 187.5,33C 188.167,32.6667 188.833,32.3333 189.5,32C 187.5,31.6667 185.5,31.3333 183.5,31C 184.167,30.6667 184.833,30.3333 185.5,30C 180.833,29.6667 176.167,29.3333 171.5,29C 172.167,28.6667 172.833,28.3333 173.5,28C 171.5,27.6667 169.5,27.3333 167.5,27C 168.167,26.6667 168.833,26.3333 169.5,26C 162.121,25.5376 156.121,24.5376 151.5,23C 152.833,22.6667 154.167,22.3333 155.5,22C 147.494,21.7789 140.827,20.7789 135.5,19C 137.5,18.6667 139.5,18.3333 141.5,18C 136.833,17.6667 132.167,17.3333 127.5,17C 128.167,16.6667 128.833,16.3333 129.5,16C 127.5,15.6667 125.5,15.3333 123.5,15C 124.167,14.6667 124.833,14.3333 125.5,14C 120.833,13.6667 116.167,13.3333 111.5,13C 112.167,12.6667 112.833,12.3333 113.5,12C 111.5,11.6667 109.5,11.3333 107.5,11C 108.167,10.6667 108.833,10.3333 109.5,10C 106.167,9.66667 102.833,9.33333 99.5,9C 100.167,8.66667 100.833,8.33333 101.5,8C 98.8333,7.66667 96.1667,7.33333 93.5,7C 94.1667,6.66667 94.8333,6.33333 95.5,6C 91.5,5.66667 87.5,5.33333 83.5,5C 84.1667,4.66667 84.8333,4.33333 85.5,4C 82.8333,3.66667 80.1667,3.33333 77.5,3C 78.8333,2.66667 80.1667,2.33333 81.5,2C 76.8333,1.66667 72.1667,1.33333 67.5,1C 68.4158,0.721579 69.0825,0.221579 69.5,-0.5 Z"/></g>
<g><path style="opacity:1" fill="#449ef0" d="M 161.5,-0.5 C 199.5,-0.5 237.5,-0.5 275.5,-0.5C 275.5,9.5 275.5,19.5 275.5,29.5C 271.486,29.6655 267.486,29.4988 263.5,29C 264.167,28.6667 264.833,28.3333 265.5,28C 262.833,27.6667 260.167,27.3333 257.5,27C 258.833,26.6667 260.167,26.3333 261.5,26C 256.833,25.6667 252.167,25.3333 247.5,25C 248.167,24.6667 248.833,24.3333 249.5,24C 247.5,23.6667 245.5,23.3333 243.5,23C 244.167,22.6667 244.833,22.3333 245.5,22C 240.833,21.6667 236.167,21.3333 231.5,21C 232.167,20.6667 232.833,20.3333 233.5,20C 231.5,19.6667 229.5,19.3333 227.5,19C 228.167,18.6667 228.833,18.3333 229.5,18C 222.797,17.8209 217.464,16.8209 213.5,15C 214.833,14.6667 216.167,14.3333 217.5,14C 212.833,13.6667 208.167,13.3333 203.5,13C 204.167,12.6667 204.833,12.3333 205.5,12C 202.833,11.6667 200.167,11.3333 197.5,11C 198.833,10.6667 200.167,10.3333 201.5,10C 196.833,9.66667 192.167,9.33333 187.5,9C 188.167,8.66667 188.833,8.33333 189.5,8C 187.5,7.66667 185.5,7.33333 183.5,7C 184.167,6.66667 184.833,6.33333 185.5,6C 180.833,5.66667 176.167,5.33333 171.5,5C 172.833,4.66667 174.167,4.33333 175.5,4C 171.536,2.17911 166.203,1.17911 159.5,1C 160.416,0.721579 161.082,0.221579 161.5,-0.5 Z"/></g>
<g><path style="opacity:1" fill="#bfdaf9" d="M 20.5,37.5 C 18.1667,38.8333 15.8333,38.8333 13.5,37.5C 13.3359,34.8127 13.5026,32.146 14,29.5C 16,28.1667 18,28.1667 20,29.5C 20.4974,32.146 20.6641,34.8127 20.5,37.5 Z"/></g>
<g><path style="opacity:1" fill="#3790ed" d="M 16.5,29.5 C 18.9506,31.9162 19.1173,34.5829 17,37.5C 15.1884,34.9543 15.0217,32.2877 16.5,29.5 Z"/></g>
<g><path style="opacity:1" fill="#338cec" d="M -0.5,33.5 C 1.5,33.5 3.5,33.5 5.5,33.5C 5.57643,38.4096 7.90976,39.7429 12.5,37.5C 12.8333,37.5 13.1667,37.5 13.5,37.5C 15.8333,38.8333 18.1667,38.8333 20.5,37.5C 23.8333,38.1667 27.1667,38.8333 30.5,39.5C 30.5,50.8333 30.5,62.1667 30.5,73.5C 26.8183,73.6653 23.1516,73.4986 19.5,73C 20.8333,72.6667 22.1667,72.3333 23.5,72C 20.6353,71.8171 17.9686,71.3171 15.5,70.5C 17.1439,70.7135 18.6439,70.3802 20,69.5C 20.7772,66.5706 20.6105,63.7372 19.5,61C 17.8333,60.3333 16.1667,60.3333 14.5,61C 13.8875,63.1474 13.2208,65.314 12.5,67.5C 10.4981,58.6597 8.16473,58.993 5.5,68.5C 3.6208,67.6586 1.6208,67.3253 -0.5,67.5C -0.5,56.1667 -0.5,44.8333 -0.5,33.5 Z"/></g>
<g><path style="opacity:1" fill="#64aaf1" d="M 31.5,35.5 C 31.5,35.1667 31.5,34.8333 31.5,34.5C 68.1667,34.5 104.833,34.5 141.5,34.5C 160.833,34.5 180.167,34.5 199.5,34.5C 224.169,34.3334 248.836,34.5 273.5,35C 262.172,35.4999 250.838,35.6665 239.5,35.5C 239.5,45.8333 239.5,56.1667 239.5,66.5C 244.5,66.5 249.5,66.5 254.5,66.5C 254.5,67.1667 254.167,67.5 253.5,67.5C 248.833,67.5 244.167,67.5 239.5,67.5C 239.5,77.8333 239.5,88.1667 239.5,98.5C 243.833,98.5 248.167,98.5 252.5,98.5C 252.173,88.3194 252.506,78.3194 253.5,68.5C 253.5,88.5 253.5,108.5 253.5,128.5C 252.506,119.014 252.173,109.348 252.5,99.5C 248.167,99.5 243.833,99.5 239.5,99.5C 239.5,109.833 239.5,120.167 239.5,130.5C 239.167,130.5 238.833,130.5 238.5,130.5C 238.5,120.167 238.5,109.833 238.5,99.5C 227.167,99.5 215.833,99.5 204.5,99.5C 204.5,109.833 204.5,120.167 204.5,130.5C 204.167,130.5 203.833,130.5 203.5,130.5C 203.5,120.167 203.5,109.833 203.5,99.5C 199.167,99.5 194.833,99.5 190.5,99.5C 190.827,109.348 190.494,119.014 189.5,128.5C 189.5,103.167 189.5,77.8333 189.5,52.5C 190.486,56.97 190.819,61.6367 190.5,66.5C 194.833,66.5 199.167,66.5 203.5,66.5C 203.5,56.1667 203.5,45.8333 203.5,35.5C 192.5,35.5 181.5,35.5 170.5,35.5C 170.5,37.5 170.5,39.5 170.5,41.5C 170.167,41.5 169.833,41.5 169.5,41.5C 169.5,39.5 169.5,37.5 169.5,35.5C 158.167,35.5 146.833,35.5 135.5,35.5C 135.167,35.5 134.833,35.5 134.5,35.5C 123.167,35.5 111.833,35.5 100.5,35.5C 100.5,38.1667 100.5,40.8333 100.5,43.5C 100.167,43.5 99.8333,43.5 99.5,43.5C 99.5,40.8333 99.5,38.1667 99.5,35.5C 88.5,35.5 77.5,35.5 66.5,35.5C 66.1667,35.5 65.8333,35.5 65.5,35.5C 54.1667,35.5 42.8333,35.5 31.5,35.5 Z"/></g>
<g><path style="opacity:1" fill="#c8dffa" d="M 12.5,37.5 C 7.90976,39.7429 5.57643,38.4096 5.5,33.5C 5.2965,31.6096 5.96317,30.1096 7.5,29C 12.6292,28.4736 12.6292,29.1402 7.5,31C 11.8822,31.0027 13.5489,33.1694 12.5,37.5 Z"/></g>
<g><path style="opacity:1" fill="#3790ed" d="M 8.5,32.5 C 10.898,33.8823 11.0647,35.549 9,37.5C 7.21156,35.9769 7.04489,34.3102 8.5,32.5 Z"/></g>
<g><path style="opacity:1" fill="#3993ee" d="M 135.5,35.5 C 146.833,35.5 158.167,35.5 169.5,35.5C 169.5,37.5 169.5,39.5 169.5,41.5C 169.5,49.8333 169.5,58.1667 169.5,66.5C 158.167,66.5 146.833,66.5 135.5,66.5C 135.5,56.1667 135.5,45.8333 135.5,35.5 Z"/></g>
<g><path style="opacity:1" fill="#3c96ee" d="M 204.5,35.5 C 215.833,35.5 227.167,35.5 238.5,35.5C 238.5,45.8333 238.5,56.1667 238.5,66.5C 227.167,66.5 215.833,66.5 204.5,66.5C 204.5,56.1667 204.5,45.8333 204.5,35.5 Z"/></g>
<g><path style="opacity:1" fill="#348eed" d="M 31.5,35.5 C 42.8333,35.5 54.1667,35.5 65.5,35.5C 65.5,45.8333 65.5,56.1667 65.5,66.5C 60.8333,66.5 56.1667,66.5 51.5,66.5C 51.6659,61.4889 51.4993,56.4889 51,51.5C 48.7655,50.0198 46.9321,50.3531 45.5,52.5C 44.5139,56.97 44.1805,61.6367 44.5,66.5C 40.1667,66.5 35.8333,66.5 31.5,66.5C 31.5,56.1667 31.5,45.8333 31.5,35.5 Z"/></g>
<g><path style="opacity:1" fill="#3b94ee" d="M 189.5,52.5 C 188.068,50.3531 186.235,50.0198 184,51.5C 183.501,56.4889 183.334,61.4889 183.5,66.5C 179.167,66.5 174.833,66.5 170.5,66.5C 170.5,58.1667 170.5,49.8333 170.5,41.5C 170.5,39.5 170.5,37.5 170.5,35.5C 181.5,35.5 192.5,35.5 203.5,35.5C 203.5,45.8333 203.5,56.1667 203.5,66.5C 199.167,66.5 194.833,66.5 190.5,66.5C 190.819,61.6367 190.486,56.97 189.5,52.5 Z"/></g>
<g><path style="opacity:1" fill="#c1dbf9" d="M 15.5,70.5 C 14.5178,69.8592 13.5178,69.1925 12.5,68.5C 11.8333,69.1667 11.1667,69.8333 10.5,70.5C 9.15848,68.9951 7.49181,68.3285 5.5,68.5C 8.16473,58.993 10.4981,58.6597 12.5,67.5C 13.2208,65.314 13.8875,63.1474 14.5,61C 16.1667,60.3333 17.8333,60.3333 19.5,61C 20.6105,63.7372 20.7772,66.5706 20,69.5C 18.6439,70.3802 17.1439,70.7135 15.5,70.5 Z"/></g>
<g><path style="opacity:1" fill="#338bec" d="M 16.5,61.5 C 18.9506,63.9162 19.1173,66.5829 17,69.5C 15.1884,66.9543 15.0217,64.2877 16.5,61.5 Z"/></g>
<g><path style="opacity:1" fill="#4191ed" d="M 8.5,64.5 C 9.7759,65.3864 9.7759,66.3864 8.5,67.5C 7.43764,66.5754 7.43764,65.5754 8.5,64.5 Z"/></g>
<g><path style="opacity:1" fill="#5fa5f0" d="M 65.5,35.5 C 65.8333,35.5 66.1667,35.5 66.5,35.5C 66.5,45.8333 66.5,56.1667 66.5,66.5C 77.5,66.5 88.5,66.5 99.5,66.5C 99.5,58.8333 99.5,51.1667 99.5,43.5C 99.8333,43.5 100.167,43.5 100.5,43.5C 100.5,51.1667 100.5,58.8333 100.5,66.5C 111.833,66.5 123.167,66.5 134.5,66.5C 134.5,56.1667 134.5,45.8333 134.5,35.5C 134.833,35.5 135.167,35.5 135.5,35.5C 135.5,45.8333 135.5,56.1667 135.5,66.5C 146.833,66.5 158.167,66.5 169.5,66.5C 169.5,58.1667 169.5,49.8333 169.5,41.5C 169.833,41.5 170.167,41.5 170.5,41.5C 170.5,49.8333 170.5,58.1667 170.5,66.5C 174.833,66.5 179.167,66.5 183.5,66.5C 183.5,66.8333 183.5,67.1667 183.5,67.5C 179.167,67.5 174.833,67.5 170.5,67.5C 170.5,77.8333 170.5,88.1667 170.5,98.5C 174.833,98.5 179.167,98.5 183.5,98.5C 183.5,98.8333 183.5,99.1667 183.5,99.5C 179.167,99.5 174.833,99.5 170.5,99.5C 170.5,109.833 170.5,120.167 170.5,130.5C 170.167,130.5 169.833,130.5 169.5,130.5C 169.5,120.167 169.5,109.833 169.5,99.5C 164.833,99.5 160.167,99.5 155.5,99.5C 155.5,99.1667 155.5,98.8333 155.5,98.5C 160.167,98.5 164.833,98.5 169.5,98.5C 169.5,88.1667 169.5,77.8333 169.5,67.5C 158.167,67.5 146.833,67.5 135.5,67.5C 135.5,77.8333 135.5,88.1667 135.5,98.5C 140.263,98.7744 144.93,98.441 149.5,97.5C 149.5,107.833 149.5,118.167 149.5,128.5C 148.506,119.014 148.173,109.348 148.5,99.5C 144.167,99.5 139.833,99.5 135.5,99.5C 135.5,109.833 135.5,120.167 135.5,130.5C 135.167,130.5 134.833,130.5 134.5,130.5C 134.5,120.167 134.5,109.833 134.5,99.5C 123.167,99.5 111.833,99.5 100.5,99.5C 100.5,109.833 100.5,120.167 100.5,130.5C 100.167,130.5 99.8333,130.5 99.5,130.5C 99.5,120.167 99.5,109.833 99.5,99.5C 95.1667,99.5 90.8333,99.5 86.5,99.5C 86.8271,109.348 86.4938,119.014 85.5,128.5C 85.8074,118.418 85.4741,108.418 84.5,98.5C 89.5,98.5 94.5,98.5 99.5,98.5C 99.5,88.1667 99.5,77.8333 99.5,67.5C 88.5,67.5 77.5,67.5 66.5,67.5C 66.5,77.8333 66.5,88.1667 66.5,98.5C 71.1667,98.5 75.8333,98.5 80.5,98.5C 80.5,108.5 80.5,118.5 80.5,128.5C 79.5062,119.014 79.1729,109.348 79.5,99.5C 75.1667,99.5 70.8333,99.5 66.5,99.5C 66.5,109.833 66.5,120.167 66.5,130.5C 66.1667,130.5 65.8333,130.5 65.5,130.5C 65.5,120.167 65.5,109.833 65.5,99.5C 60.8333,99.5 56.1667,99.5 51.5,99.5C 51.5,99.1667 51.5,98.8333 51.5,98.5C 56.1667,98.5 60.8333,98.5 65.5,98.5C 65.5,88.1667 65.5,77.8333 65.5,67.5C 60.8333,67.5 56.1667,67.5 51.5,67.5C 51.5,67.1667 51.5,66.8333 51.5,66.5C 56.1667,66.5 60.8333,66.5 65.5,66.5C 65.5,56.1667 65.5,45.8333 65.5,35.5 Z"/></g>
<g><path style="opacity:1" fill="#358fed" d="M 66.5,35.5 C 77.5,35.5 88.5,35.5 99.5,35.5C 99.5,38.1667 99.5,40.8333 99.5,43.5C 99.5,51.1667 99.5,58.8333 99.5,66.5C 88.5,66.5 77.5,66.5 66.5,66.5C 66.5,56.1667 66.5,45.8333 66.5,35.5 Z"/></g>
<g><path style="opacity:1" fill="#3791ed" d="M 134.5,35.5 C 134.5,45.8333 134.5,56.1667 134.5,66.5C 123.167,66.5 111.833,66.5 100.5,66.5C 100.5,58.8333 100.5,51.1667 100.5,43.5C 100.5,40.8333 100.5,38.1667 100.5,35.5C 111.833,35.5 123.167,35.5 134.5,35.5 Z"/></g>
<g><path style="opacity:1" fill="#2e86eb" d="M -0.5,67.5 C 1.6208,67.3253 3.6208,67.6586 5.5,68.5C 7.49181,68.3285 9.15848,68.9951 10.5,70.5C 11.1667,69.8333 11.8333,69.1667 12.5,68.5C 13.5178,69.1925 14.5178,69.8592 15.5,70.5C 17.9686,71.3171 20.6353,71.8171 23.5,72C 22.1667,72.3333 20.8333,72.6667 19.5,73C 23.1516,73.4986 26.8183,73.6653 30.5,73.5C 30.5,85.5 30.5,97.5 30.5,109.5C 27.4017,109.587 27.0684,109.087 29.5,108C 26.8333,107.667 24.1667,107.333 21.5,107C 22.1667,106.667 22.8333,106.333 23.5,106C 19.5,105.667 15.5,105.333 11.5,105C 12.1667,104.667 12.8333,104.333 13.5,104C 11.2922,103.809 9.29221,103.309 7.5,102.5C 14.1344,102.323 14.1344,101.823 7.5,101C 9,99.5 10.5,98 12,96.5C 12.6838,95.2161 12.5171,94.0495 11.5,93C 9.55942,92.2571 7.72609,92.4238 6,93.5C 5.33333,94.5 5.33333,95.5 6,96.5C 6.83333,95.5 7.66667,94.5 8.5,93.5C 9.5,93.8333 10.1667,94.5 10.5,95.5C 8.81027,97.5193 7.14361,99.5193 5.5,101.5C 3.5,101.5 1.5,101.5 -0.5,101.5C -0.5,90.1667 -0.5,78.8333 -0.5,67.5 Z"/></g>
<g><path style="opacity:1" fill="#328cec" d="M 100.5,67.5 C 111.833,67.5 123.167,67.5 134.5,67.5C 134.5,77.8333 134.5,88.1667 134.5,98.5C 123.167,98.5 111.833,98.5 100.5,98.5C 100.5,88.1667 100.5,77.8333 100.5,67.5 Z"/></g>
<g><path style="opacity:1" fill="#cee3fa" d="M 189.5,52.5 C 189.5,77.8333 189.5,103.167 189.5,128.5C 189.5,129.167 189.167,129.5 188.5,129.5C 187.5,129.5 186.5,129.5 185.5,129.5C 184.883,129.389 184.383,129.056 184,128.5C 183.5,118.839 183.334,109.172 183.5,99.5C 183.5,99.1667 183.5,98.8333 183.5,98.5C 183.5,88.1667 183.5,77.8333 183.5,67.5C 183.5,67.1667 183.5,66.8333 183.5,66.5C 183.334,61.4889 183.501,56.4889 184,51.5C 186.235,50.0198 188.068,50.3531 189.5,52.5 Z"/></g>
<g><path style="opacity:1" fill="#348ded" d="M 155.5,98.5 C 155.516,96.5159 154.516,95.5159 152.5,95.5C 150.962,95.4534 149.962,96.1201 149.5,97.5C 144.93,98.441 140.263,98.7744 135.5,98.5C 135.5,88.1667 135.5,77.8333 135.5,67.5C 146.833,67.5 158.167,67.5 169.5,67.5C 169.5,77.8333 169.5,88.1667 169.5,98.5C 164.833,98.5 160.167,98.5 155.5,98.5 Z"/></g>
<g><path style="opacity:1" fill="#3690ed" d="M 190.5,67.5 C 194.833,67.5 199.167,67.5 203.5,67.5C 203.5,77.8333 203.5,88.1667 203.5,98.5C 199.167,98.5 194.833,98.5 190.5,98.5C 190.5,88.1667 190.5,77.8333 190.5,67.5 Z"/></g>
<g><path style="opacity:1" fill="#3790ed" d="M 204.5,67.5 C 215.833,67.5 227.167,67.5 238.5,67.5C 238.5,77.8333 238.5,88.1667 238.5,98.5C 227.167,98.5 215.833,98.5 204.5,98.5C 204.5,88.1667 204.5,77.8333 204.5,67.5 Z"/></g>
<g><path style="opacity:1" fill="#348eed" d="M 183.5,67.5 C 183.5,77.8333 183.5,88.1667 183.5,98.5C 179.167,98.5 174.833,98.5 170.5,98.5C 170.5,88.1667 170.5,77.8333 170.5,67.5C 174.833,67.5 179.167,67.5 183.5,67.5 Z"/></g>
<g><path style="opacity:1" fill="#2f88ec" d="M 51.5,67.5 C 56.1667,67.5 60.8333,67.5 65.5,67.5C 65.5,77.8333 65.5,88.1667 65.5,98.5C 60.8333,98.5 56.1667,98.5 51.5,98.5C 51.5,88.1667 51.5,77.8333 51.5,67.5 Z"/></g>
<g><path style="opacity:1" fill="#5495df" d="M 31.5,34.5 C 31.5,34.8333 31.5,35.1667 31.5,35.5C 31.5,45.8333 31.5,56.1667 31.5,66.5C 35.8333,66.5 40.1667,66.5 44.5,66.5C 44.1805,61.6367 44.5139,56.97 45.5,52.5C 45.5,77.8333 45.5,103.167 45.5,128.5C 44.5062,119.014 44.1729,109.348 44.5,99.5C 40.1667,99.5 35.8333,99.5 31.5,99.5C 31.5,109.833 31.5,120.167 31.5,130.5C 30.5088,123.687 30.1755,116.687 30.5,109.5C 30.5,97.5 30.5,85.5 30.5,73.5C 30.5,62.1667 30.5,50.8333 30.5,39.5C 30.2155,37.5853 30.5489,35.9187 31.5,34.5 Z"/></g>
<g><path style="opacity:1" fill="#2e88eb" d="M 31.5,67.5 C 35.8333,67.5 40.1667,67.5 44.5,67.5C 44.5,77.8333 44.5,88.1667 44.5,98.5C 40.1667,98.5 35.8333,98.5 31.5,98.5C 31.5,88.1667 31.5,77.8333 31.5,67.5 Z"/></g>
<g><path style="opacity:1" fill="#3089ec" d="M 84.5,98.5 C 83.1667,98.5 81.8333,98.5 80.5,98.5C 75.8333,98.5 71.1667,98.5 66.5,98.5C 66.5,88.1667 66.5,77.8333 66.5,67.5C 77.5,67.5 88.5,67.5 99.5,67.5C 99.5,77.8333 99.5,88.1667 99.5,98.5C 94.5,98.5 89.5,98.5 84.5,98.5 Z"/></g>
<g><path style="opacity:1" fill="#3992ed" d="M 275.5,71.5 C 275.5,82.8333 275.5,94.1667 275.5,105.5C 272.813,105.664 270.146,105.497 267.5,105C 268.833,104.667 270.167,104.333 271.5,104C 266.135,103.699 262.135,102.865 259.5,101.5C 259.5,90.5 259.5,79.5 259.5,68.5C 261.288,67.3775 263.288,67.2109 265.5,68C 264.167,68.3333 262.833,68.6667 261.5,69C 265.5,69.3333 269.5,69.6667 273.5,70C 272.833,70.3333 272.167,70.6667 271.5,71C 272.793,71.49 274.127,71.6567 275.5,71.5 Z"/></g>
<g><path style="opacity:1" fill="#cbdffa" d="M 7.5,102.5 C 6.50838,102.672 5.84171,102.338 5.5,101.5C 7.14361,99.5193 8.81027,97.5193 10.5,95.5C 10.1667,94.5 9.5,93.8333 8.5,93.5C 7.66667,94.5 6.83333,95.5 6,96.5C 5.33333,95.5 5.33333,94.5 6,93.5C 7.72609,92.4238 9.55942,92.2571 11.5,93C 12.5171,94.0495 12.6838,95.2161 12,96.5C 10.5,98 9,99.5 7.5,101C 14.1344,101.823 14.1344,102.323 7.5,102.5 Z"/></g>
<g><path style="opacity:1" fill="#3791ed" d="M 253.5,67.5 C 253.5,67.8333 253.5,68.1667 253.5,68.5C 252.506,78.3194 252.173,88.3194 252.5,98.5C 248.167,98.5 243.833,98.5 239.5,98.5C 239.5,88.1667 239.5,77.8333 239.5,67.5C 244.167,67.5 248.833,67.5 253.5,67.5 Z"/></g>
<g><path style="opacity:1" fill="#bdd8f8" d="M 14.5,92.5 C 16.4672,92.2606 18.3005,92.5939 20,93.5C 20.7772,96.4294 20.6105,99.2628 19.5,102C 17.5594,102.743 15.7261,102.576 14,101.5C 13.2642,98.408 13.4309,95.408 14.5,92.5 Z"/></g>
<g><path style="opacity:1" fill="#2d85eb" d="M 16.5,93.5 C 18.9506,95.9162 19.1173,98.5829 17,101.5C 15.1884,98.9543 15.0217,96.2877 16.5,93.5 Z"/></g>
<g><path style="opacity:1" fill="#cee2fa" d="M 51.5,66.5 C 51.5,66.8333 51.5,67.1667 51.5,67.5C 51.5,77.8333 51.5,88.1667 51.5,98.5C 51.5,98.8333 51.5,99.1667 51.5,99.5C 51.8074,109.582 51.4741,119.582 50.5,129.5C 49.1667,129.5 47.8333,129.5 46.5,129.5C 45.8333,129.5 45.5,129.167 45.5,128.5C 45.5,103.167 45.5,77.8333 45.5,52.5C 46.9321,50.3531 48.7655,50.0198 51,51.5C 51.4993,56.4889 51.6659,61.4889 51.5,66.5 Z"/></g>
<g><path style="opacity:1" fill="#d4e6fa" d="M 80.5,98.5 C 81.8333,98.5 83.1667,98.5 84.5,98.5C 85.4741,108.418 85.8074,118.418 85.5,128.5C 85.5,129.167 85.1667,129.5 84.5,129.5C 83.5,129.5 82.5,129.5 81.5,129.5C 80.8333,129.5 80.5,129.167 80.5,128.5C 80.5,118.5 80.5,108.5 80.5,98.5 Z"/></g>
<g><path style="opacity:1" fill="#2c85eb" d="M 99.5,130.5 C 94.3054,130.821 89.3054,130.487 84.5,129.5C 85.1667,129.5 85.5,129.167 85.5,128.5C 86.4938,119.014 86.8271,109.348 86.5,99.5C 90.8333,99.5 95.1667,99.5 99.5,99.5C 99.5,109.833 99.5,120.167 99.5,130.5 Z"/></g>
<g><path style="opacity:1" fill="#2d86eb" d="M 134.5,130.5 C 129.305,130.821 124.305,130.487 119.5,129.5C 120.607,124.919 120.773,120.252 120,115.5C 118.333,114.167 116.667,114.167 115,115.5C 114.227,120.252 114.393,124.919 115.5,129.5C 110.695,130.487 105.695,130.821 100.5,130.5C 100.5,120.167 100.5,109.833 100.5,99.5C 111.833,99.5 123.167,99.5 134.5,99.5C 134.5,109.833 134.5,120.167 134.5,130.5 Z"/></g>
<g><path style="opacity:1" fill="#328bec" d="M 238.5,130.5 C 233.305,130.821 228.305,130.487 223.5,129.5C 224.607,124.919 224.773,120.252 224,115.5C 222.333,114.167 220.667,114.167 219,115.5C 218.227,120.252 218.393,124.919 219.5,129.5C 214.695,130.487 209.695,130.821 204.5,130.5C 204.5,120.167 204.5,109.833 204.5,99.5C 215.833,99.5 227.167,99.5 238.5,99.5C 238.5,109.833 238.5,120.167 238.5,130.5 Z"/></g>
<g><path style="opacity:1" fill="#338cec" d="M 253.5,128.5 C 253.5,129.167 253.833,129.5 254.5,129.5C 249.695,130.487 244.695,130.821 239.5,130.5C 239.5,120.167 239.5,109.833 239.5,99.5C 243.833,99.5 248.167,99.5 252.5,99.5C 252.173,109.348 252.506,119.014 253.5,128.5 Z"/></g>
<g><path style="opacity:1" fill="#cfe4fa" d="M 254.5,66.5 C 256.554,66.3653 258.221,67.032 259.5,68.5C 259.5,79.5 259.5,90.5 259.5,101.5C 259.666,110.506 259.5,119.506 259,128.5C 258.617,129.056 258.117,129.389 257.5,129.5C 256.5,129.5 255.5,129.5 254.5,129.5C 253.833,129.5 253.5,129.167 253.5,128.5C 253.5,108.5 253.5,88.5 253.5,68.5C 253.5,68.1667 253.5,67.8333 253.5,67.5C 254.167,67.5 254.5,67.1667 254.5,66.5 Z"/></g>
<g><path style="opacity:1" fill="#2881ea" d="M -0.5,101.5 C 1.5,101.5 3.5,101.5 5.5,101.5C 5.84171,102.338 6.50838,102.672 7.5,102.5C 9.29221,103.309 11.2922,103.809 13.5,104C 12.8333,104.333 12.1667,104.667 11.5,105C 15.5,105.333 19.5,105.667 23.5,106C 22.8333,106.333 22.1667,106.667 21.5,107C 24.1667,107.333 26.8333,107.667 29.5,108C 27.0684,109.087 27.4017,109.587 30.5,109.5C 30.1755,116.687 30.5088,123.687 31.5,130.5C 59.9951,131.498 88.6618,131.831 117.5,131.5C 117.082,132.222 116.416,132.722 115.5,133C 120.167,133.333 124.833,133.667 129.5,134C 128.833,134.333 128.167,134.667 127.5,135C 129.5,135.333 131.5,135.667 133.5,136C 132.833,136.333 132.167,136.667 131.5,137C 138.879,137.462 144.879,138.462 149.5,140C 148.167,140.333 146.833,140.667 145.5,141C 149.5,141.333 153.5,141.667 157.5,142C 156.833,142.333 156.167,142.667 155.5,143C 158.167,143.333 160.833,143.667 163.5,144C 162.167,144.333 160.833,144.667 159.5,145C 164.167,145.333 168.833,145.667 173.5,146C 172.833,146.333 172.167,146.667 171.5,147C 173.5,147.333 175.5,147.667 177.5,148C 176.833,148.333 176.167,148.667 175.5,149C 178.146,149.497 180.813,149.664 183.5,149.5C 183.183,152.572 183.516,155.572 184.5,158.5C 185.452,156.955 185.785,155.288 185.5,153.5C 190.833,153.167 190.833,152.833 185.5,152.5C 185.5,151.5 185.5,150.5 185.5,149.5C 186.833,149.5 188.167,149.5 189.5,149.5C 189.082,150.222 188.416,150.722 187.5,151C 189.5,151.333 191.5,151.667 193.5,152C 192.833,152.333 192.167,152.667 191.5,153C 194.833,153.333 198.167,153.667 201.5,154C 200.833,154.333 200.167,154.667 199.5,155C 202.167,155.333 204.833,155.667 207.5,156C 206.833,156.333 206.167,156.667 205.5,157C 209.486,157.499 213.486,157.666 217.5,157.5C 217.082,158.222 216.416,158.722 215.5,159C 218.167,159.333 220.833,159.667 223.5,160C 222.167,160.333 220.833,160.667 219.5,161C 224.167,161.333 228.833,161.667 233.5,162C 232.833,162.333 232.167,162.667 231.5,163C 233.5,163.333 235.5,163.667 237.5,164C 236.833,164.333 236.167,164.667 235.5,165C 240.167,165.333 244.833,165.667 249.5,166C 248.167,166.333 246.833,166.667 245.5,167C 249.464,168.821 254.797,169.821 261.5,170C 260.833,170.333 260.167,170.667 259.5,171C 262.167,171.333 264.833,171.667 267.5,172C 266.167,172.333 264.833,172.667 263.5,173C 267.486,173.499 271.486,173.666 275.5,173.5C 275.5,177.833 275.5,182.167 275.5,186.5C 257.5,186.5 239.5,186.5 221.5,186.5C 217.018,185.674 212.351,185.174 207.5,185C 208.167,184.667 208.833,184.333 209.5,184C 207.5,183.667 205.5,183.333 203.5,183C 204.167,182.667 204.833,182.333 205.5,182C 200.833,181.667 196.167,181.333 191.5,181C 192.167,180.667 192.833,180.333 193.5,180C 191.5,179.667 189.5,179.333 187.5,179C 188.167,178.667 188.833,178.333 189.5,178C 182.797,177.821 177.464,176.821 173.5,175C 174.833,174.667 176.167,174.333 177.5,174C 172.833,173.667 168.167,173.333 163.5,173C 164.167,172.667 164.833,172.333 165.5,172C 163.5,171.667 161.5,171.333 159.5,171C 160.167,170.667 160.833,170.333 161.5,170C 156.833,169.667 152.167,169.333 147.5,169C 148.833,168.667 150.167,168.333 151.5,168C 148.833,167.667 146.167,167.333 143.5,167C 144.167,166.667 144.833,166.333 145.5,166C 140.833,165.667 136.167,165.333 131.5,165C 132.833,164.667 134.167,164.333 135.5,164C 131.536,162.179 126.203,161.179 119.5,161C 120.167,160.667 120.833,160.333 121.5,160C 119.292,159.809 117.292,159.309 115.5,158.5C 117.102,150.57 118.769,150.57 120.5,158.5C 123.063,155.495 123.73,152.162 122.5,148.5C 121.833,149.833 121.167,151.167 120.5,152.5C 118.035,147.073 116.202,147.406 115,153.5C 114.261,151.779 113.427,150.113 112.5,148.5C 111.892,151.505 112.226,154.505 113.5,157.5C 110.15,157.665 106.817,157.498 103.5,157C 104.167,156.667 104.833,156.333 105.5,156C 103.5,155.667 101.5,155.333 99.5,155C 100.167,154.667 100.833,154.333 101.5,154C 92.6706,154.013 86.6706,153.179 83.5,151.5C 83.8807,150.069 84.8807,149.236 86.5,149C 83.633,148.199 80.9664,148.366 78.5,149.5C 76.1432,149.663 73.8098,149.497 71.5,149C 73.5,148.667 75.5,148.333 77.5,148C 74.1667,147.667 70.8333,147.333 67.5,147C 68.8333,146.667 70.1667,146.333 71.5,146C 67.5,145.667 63.5,145.333 59.5,145C 60.1667,144.667 60.8333,144.333 61.5,144C 59.5,143.667 57.5,143.333 55.5,143C 56.1667,142.667 56.8333,142.333 57.5,142C 52.8333,141.667 48.1667,141.333 43.5,141C 44.1667,140.667 44.8333,140.333 45.5,140C 43.5,139.667 41.5,139.333 39.5,139C 40.1667,138.667 40.8333,138.333 41.5,138C 37.5,137.667 33.5,137.333 29.5,137C 30.1667,136.667 30.8333,136.333 31.5,136C 26.2759,135.885 22.6093,135.052 20.5,133.5C 20.7771,130.552 20.4438,127.719 19.5,125C 14.079,123.72 12.079,125.887 13.5,131.5C 11.4727,131.662 9.4727,131.495 7.5,131C 8.83333,130.667 10.1667,130.333 11.5,130C 7.51383,129.501 3.51383,129.334 -0.5,129.5C -0.5,120.167 -0.5,110.833 -0.5,101.5 Z"/></g>
<g><path style="opacity:1" fill="#338cec" d="M 259.5,101.5 C 262.135,102.865 266.135,103.699 271.5,104C 270.167,104.333 268.833,104.667 267.5,105C 270.146,105.497 272.813,105.664 275.5,105.5C 275.5,116.833 275.5,128.167 275.5,139.5C 271.672,137.902 266.339,137.068 259.5,137C 260.167,136.667 260.833,136.333 261.5,136C 259.5,135.667 257.5,135.333 255.5,135C 256.167,134.667 256.833,134.333 257.5,134C 252.833,133.667 248.167,133.333 243.5,133C 244.416,132.722 245.082,132.222 245.5,131.5C 254.839,131.666 264.173,131.5 273.5,131C 267.984,130.827 262.651,130.327 257.5,129.5C 258.117,129.389 258.617,129.056 259,128.5C 259.5,119.506 259.666,110.506 259.5,101.5 Z"/></g>
<g><path style="opacity:1" fill="#2e87eb" d="M 149.5,128.5 C 149.5,129.167 149.833,129.5 150.5,129.5C 145.695,130.487 140.695,130.821 135.5,130.5C 135.5,120.167 135.5,109.833 135.5,99.5C 139.833,99.5 144.167,99.5 148.5,99.5C 148.173,109.348 148.506,119.014 149.5,128.5 Z"/></g>
<g><path style="opacity:1" fill="#2a83eb" d="M 51.5,99.5 C 56.1667,99.5 60.8333,99.5 65.5,99.5C 65.5,109.833 65.5,120.167 65.5,130.5C 60.3054,130.821 55.3054,130.487 50.5,129.5C 51.4741,119.582 51.8074,109.582 51.5,99.5 Z"/></g>
<g><path style="opacity:1" fill="#cee2fa" d="M 155.5,98.5 C 155.5,98.8333 155.5,99.1667 155.5,99.5C 155.666,109.172 155.5,118.839 155,128.5C 154.617,129.056 154.117,129.389 153.5,129.5C 152.5,129.5 151.5,129.5 150.5,129.5C 149.833,129.5 149.5,129.167 149.5,128.5C 149.5,118.167 149.5,107.833 149.5,97.5C 149.962,96.1201 150.962,95.4534 152.5,95.5C 154.516,95.5159 155.516,96.5159 155.5,98.5 Z"/></g>
<g><path style="opacity:1" fill="#2982ea" d="M 45.5,128.5 C 45.5,129.167 45.8333,129.5 46.5,129.5C 41.6946,130.487 36.6946,130.821 31.5,130.5C 31.5,120.167 31.5,109.833 31.5,99.5C 35.8333,99.5 40.1667,99.5 44.5,99.5C 44.1729,109.348 44.5062,119.014 45.5,128.5 Z"/></g>
<g><path style="opacity:1" fill="#2f88eb" d="M 155.5,99.5 C 160.167,99.5 164.833,99.5 169.5,99.5C 169.5,109.833 169.5,120.167 169.5,130.5C 163.974,130.821 158.64,130.488 153.5,129.5C 154.117,129.389 154.617,129.056 155,128.5C 155.5,118.839 155.666,109.172 155.5,99.5 Z"/></g>
<g><path style="opacity:1" fill="#308aec" d="M 203.5,130.5 C 198.305,130.821 193.305,130.487 188.5,129.5C 189.167,129.5 189.5,129.167 189.5,128.5C 190.494,119.014 190.827,109.348 190.5,99.5C 194.833,99.5 199.167,99.5 203.5,99.5C 203.5,109.833 203.5,120.167 203.5,130.5 Z"/></g>
<g><path style="opacity:1" fill="#2f88ec" d="M 183.5,99.5 C 183.334,109.172 183.5,118.839 184,128.5C 184.383,129.056 184.883,129.389 185.5,129.5C 180.695,130.487 175.695,130.821 170.5,130.5C 170.5,120.167 170.5,109.833 170.5,99.5C 174.833,99.5 179.167,99.5 183.5,99.5 Z"/></g>
<g><path style="opacity:1" fill="#d2e5fa" d="M 119.5,129.5 C 118.167,129.5 116.833,129.5 115.5,129.5C 114.393,124.919 114.227,120.252 115,115.5C 116.667,114.167 118.333,114.167 120,115.5C 120.773,120.252 120.607,124.919 119.5,129.5 Z"/></g>
<g><path style="opacity:1" fill="#d3e6fa" d="M 223.5,129.5 C 222.167,129.5 220.833,129.5 219.5,129.5C 218.393,124.919 218.227,120.252 219,115.5C 220.667,114.167 222.333,114.167 224,115.5C 224.773,120.252 224.607,124.919 223.5,129.5 Z"/></g>
<g><path style="opacity:1" fill="#2a84eb" d="M 80.5,128.5 C 80.5,129.167 80.8333,129.5 81.5,129.5C 76.6946,130.487 71.6946,130.821 66.5,130.5C 66.5,120.167 66.5,109.833 66.5,99.5C 70.8333,99.5 75.1667,99.5 79.5,99.5C 79.1729,109.348 79.5062,119.014 80.5,128.5 Z"/></g>
<g><path style="opacity:1" fill="#bad5f8" d="M 20.5,133.5 C 18.5976,134.511 16.5976,134.678 14.5,134C 13.7476,133.329 13.4142,132.496 13.5,131.5C 12.079,125.887 14.079,123.72 19.5,125C 20.4438,127.719 20.7771,130.552 20.5,133.5 Z"/></g>
<g><path style="opacity:1" fill="#2880ea" d="M 16.5,125.5 C 18.9506,127.916 19.1173,130.583 17,133.5C 15.1884,130.954 15.0217,128.288 16.5,125.5 Z"/></g>
<g><path style="opacity:1" fill="#247de9" d="M -0.5,129.5 C 3.51383,129.334 7.51383,129.501 11.5,130C 10.1667,130.333 8.83333,130.667 7.5,131C 9.4727,131.495 11.4727,131.662 13.5,131.5C 13.4142,132.496 13.7476,133.329 14.5,134C 16.5976,134.678 18.5976,134.511 20.5,133.5C 22.6093,135.052 26.2759,135.885 31.5,136C 30.8333,136.333 30.1667,136.667 29.5,137C 33.5,137.333 37.5,137.667 41.5,138C 40.8333,138.333 40.1667,138.667 39.5,139C 41.5,139.333 43.5,139.667 45.5,140C 44.8333,140.333 44.1667,140.667 43.5,141C 48.1667,141.333 52.8333,141.667 57.5,142C 56.8333,142.333 56.1667,142.667 55.5,143C 57.5,143.333 59.5,143.667 61.5,144C 60.8333,144.333 60.1667,144.667 59.5,145C 63.5,145.333 67.5,145.667 71.5,146C 70.1667,146.333 68.8333,146.667 67.5,147C 70.8333,147.333 74.1667,147.667 77.5,148C 75.5,148.333 73.5,148.667 71.5,149C 73.8098,149.497 76.1432,149.663 78.5,149.5C 79.5,149.5 80.5,149.5 81.5,149.5C 81.1826,152.572 81.5159,155.572 82.5,158.5C 83.4742,156.257 83.8076,153.924 83.5,151.5C 86.6706,153.179 92.6706,154.013 101.5,154C 100.833,154.333 100.167,154.667 99.5,155C 101.5,155.333 103.5,155.667 105.5,156C 104.833,156.333 104.167,156.667 103.5,157C 106.817,157.498 110.15,157.665 113.5,157.5C 113.842,158.338 114.508,158.672 115.5,158.5C 117.292,159.309 119.292,159.809 121.5,160C 120.833,160.333 120.167,160.667 119.5,161C 126.203,161.179 131.536,162.179 135.5,164C 134.167,164.333 132.833,164.667 131.5,165C 136.167,165.333 140.833,165.667 145.5,166C 144.833,166.333 144.167,166.667 143.5,167C 146.167,167.333 148.833,167.667 151.5,168C 150.167,168.333 148.833,168.667 147.5,169C 152.167,169.333 156.833,169.667 161.5,170C 160.833,170.333 160.167,170.667 159.5,171C 161.5,171.333 163.5,171.667 165.5,172C 164.833,172.333 164.167,172.667 163.5,173C 168.167,173.333 172.833,173.667 177.5,174C 176.167,174.333 174.833,174.667 173.5,175C 177.464,176.821 182.797,177.821 189.5,178C 188.833,178.333 188.167,178.667 187.5,179C 189.5,179.333 191.5,179.667 193.5,180C 192.833,180.333 192.167,180.667 191.5,181C 196.167,181.333 200.833,181.667 205.5,182C 204.833,182.333 204.167,182.667 203.5,183C 205.5,183.333 207.5,183.667 209.5,184C 208.833,184.333 208.167,184.667 207.5,185C 212.351,185.174 217.018,185.674 221.5,186.5C 205.5,186.5 189.5,186.5 173.5,186.5C 169.018,185.674 164.351,185.174 159.5,185C 160.167,184.667 160.833,184.333 161.5,184C 159.5,183.667 157.5,183.333 155.5,183C 156.167,182.667 156.833,182.333 157.5,182C 152.833,181.667 148.167,181.333 143.5,181C 144.167,180.667 144.833,180.333 145.5,180C 143.5,179.667 141.5,179.333 139.5,179C 140.167,178.667 140.833,178.333 141.5,178C 134.797,177.821 129.464,176.821 125.5,175C 126.833,174.667 128.167,174.333 129.5,174C 124.833,173.667 120.167,173.333 115.5,173C 116.167,172.667 116.833,172.333 117.5,172C 115.5,171.667 113.5,171.333 111.5,171C 112.167,170.667 112.833,170.333 113.5,170C 108.833,169.667 104.167,169.333 99.5,169C 100.833,168.667 102.167,168.333 103.5,168C 100.833,167.667 98.1667,167.333 95.5,167C 96.1667,166.667 96.8333,166.333 97.5,166C 92.8333,165.667 88.1667,165.333 83.5,165C 84.8333,164.667 86.1667,164.333 87.5,164C 83.5362,162.179 78.2029,161.179 71.5,161C 72.1667,160.667 72.8333,160.333 73.5,160C 71.5,159.667 69.5,159.333 67.5,159C 68.1667,158.667 68.8333,158.333 69.5,158C 64.8333,157.667 60.1667,157.333 55.5,157C 56.1667,156.667 56.8333,156.333 57.5,156C 56.2068,155.51 54.8734,155.343 53.5,155.5C 53.5,153.167 53.5,150.833 53.5,148.5C 52.5,148.5 51.5,148.5 50.5,148.5C 48.8333,157.833 47.1667,157.833 45.5,148.5C 44.5,148.5 43.5,148.5 42.5,148.5C 42.5,149.5 42.5,150.5 42.5,151.5C 37.652,149.919 31.3186,149.086 23.5,149C 25.5,148.667 27.5,148.333 29.5,148C 23.5,147 17.5,146 11.5,145C 12.1667,144.667 12.8333,144.333 13.5,144C 11.5,143.667 9.5,143.333 7.5,143C 8.16667,142.667 8.83333,142.333 9.5,142C 6.18323,141.502 2.8499,141.335 -0.5,141.5C -0.5,137.5 -0.5,133.5 -0.5,129.5 Z"/></g>
<g><path style="opacity:1" fill="#5090d9" d="M 46.5,129.5 C 47.8333,129.5 49.1667,129.5 50.5,129.5C 55.3054,130.487 60.3054,130.821 65.5,130.5C 65.8333,130.5 66.1667,130.5 66.5,130.5C 71.6946,130.821 76.6946,130.487 81.5,129.5C 82.5,129.5 83.5,129.5 84.5,129.5C 89.3054,130.487 94.3054,130.821 99.5,130.5C 99.8333,130.5 100.167,130.5 100.5,130.5C 105.695,130.821 110.695,130.487 115.5,129.5C 116.833,129.5 118.167,129.5 119.5,129.5C 124.305,130.487 129.305,130.821 134.5,130.5C 134.833,130.5 135.167,130.5 135.5,130.5C 140.695,130.821 145.695,130.487 150.5,129.5C 151.5,129.5 152.5,129.5 153.5,129.5C 158.64,130.488 163.974,130.821 169.5,130.5C 169.833,130.5 170.167,130.5 170.5,130.5C 175.695,130.821 180.695,130.487 185.5,129.5C 186.5,129.5 187.5,129.5 188.5,129.5C 193.305,130.487 198.305,130.821 203.5,130.5C 203.833,130.5 204.167,130.5 204.5,130.5C 209.695,130.821 214.695,130.487 219.5,129.5C 220.833,129.5 222.167,129.5 223.5,129.5C 228.305,130.487 233.305,130.821 238.5,130.5C 238.833,130.5 239.167,130.5 239.5,130.5C 244.695,130.821 249.695,130.487 254.5,129.5C 255.5,129.5 256.5,129.5 257.5,129.5C 262.651,130.327 267.984,130.827 273.5,131C 264.173,131.5 254.839,131.666 245.5,131.5C 202.833,131.5 160.167,131.5 117.5,131.5C 88.6618,131.831 59.9951,131.498 31.5,130.5C 36.6946,130.821 41.6946,130.487 46.5,129.5 Z"/></g>
<g><path style="opacity:1" fill="#2d86eb" d="M 117.5,131.5 C 160.167,131.5 202.833,131.5 245.5,131.5C 245.082,132.222 244.416,132.722 243.5,133C 248.167,133.333 252.833,133.667 257.5,134C 256.833,134.333 256.167,134.667 255.5,135C 257.5,135.333 259.5,135.667 261.5,136C 260.833,136.333 260.167,136.667 259.5,137C 266.339,137.068 271.672,137.902 275.5,139.5C 275.5,150.833 275.5,162.167 275.5,173.5C 271.486,173.666 267.486,173.499 263.5,173C 264.833,172.667 266.167,172.333 267.5,172C 264.833,171.667 262.167,171.333 259.5,171C 260.167,170.667 260.833,170.333 261.5,170C 254.797,169.821 249.464,168.821 245.5,167C 246.833,166.667 248.167,166.333 249.5,166C 244.833,165.667 240.167,165.333 235.5,165C 236.167,164.667 236.833,164.333 237.5,164C 235.5,163.667 233.5,163.333 231.5,163C 232.167,162.667 232.833,162.333 233.5,162C 228.833,161.667 224.167,161.333 219.5,161C 220.833,160.667 222.167,160.333 223.5,160C 220.833,159.667 218.167,159.333 215.5,159C 216.416,158.722 217.082,158.222 217.5,157.5C 213.486,157.666 209.486,157.499 205.5,157C 206.167,156.667 206.833,156.333 207.5,156C 204.833,155.667 202.167,155.333 199.5,155C 200.167,154.667 200.833,154.333 201.5,154C 198.167,153.667 194.833,153.333 191.5,153C 192.167,152.667 192.833,152.333 193.5,152C 191.5,151.667 189.5,151.333 187.5,151C 188.416,150.722 189.082,150.222 189.5,149.5C 188.124,148.212 186.124,148.212 183.5,149.5C 180.813,149.664 178.146,149.497 175.5,149C 176.167,148.667 176.833,148.333 177.5,148C 175.5,147.667 173.5,147.333 171.5,147C 172.167,146.667 172.833,146.333 173.5,146C 168.833,145.667 164.167,145.333 159.5,145C 160.833,144.667 162.167,144.333 163.5,144C 160.833,143.667 158.167,143.333 155.5,143C 156.167,142.667 156.833,142.333 157.5,142C 153.5,141.667 149.5,141.333 145.5,141C 146.833,140.667 148.167,140.333 149.5,140C 144.879,138.462 138.879,137.462 131.5,137C 132.167,136.667 132.833,136.333 133.5,136C 131.5,135.667 129.5,135.333 127.5,135C 128.167,134.667 128.833,134.333 129.5,134C 124.833,133.667 120.167,133.333 115.5,133C 116.416,132.722 117.082,132.222 117.5,131.5 Z"/></g>
<g><path style="opacity:1" fill="#217ae9" d="M -0.5,141.5 C 2.8499,141.335 6.18323,141.502 9.5,142C 8.83333,142.333 8.16667,142.667 7.5,143C 9.5,143.333 11.5,143.667 13.5,144C 12.8333,144.333 12.1667,144.667 11.5,145C 17.5,146 23.5,147 29.5,148C 27.5,148.333 25.5,148.667 23.5,149C 31.3186,149.086 37.652,149.919 42.5,151.5C 42.1924,153.924 42.5258,156.257 43.5,158.5C 44.5215,151.878 45.5215,151.878 46.5,158.5C 49.3455,158.191 50.8455,156.525 51,153.5C 51.2022,155.256 51.7022,156.922 52.5,158.5C 53.3857,157.675 53.719,156.675 53.5,155.5C 54.8734,155.343 56.2068,155.51 57.5,156C 56.8333,156.333 56.1667,156.667 55.5,157C 60.1667,157.333 64.8333,157.667 69.5,158C 68.8333,158.333 68.1667,158.667 67.5,159C 69.5,159.333 71.5,159.667 73.5,160C 72.8333,160.333 72.1667,160.667 71.5,161C 78.2029,161.179 83.5362,162.179 87.5,164C 86.1667,164.333 84.8333,164.667 83.5,165C 88.1667,165.333 92.8333,165.667 97.5,166C 96.8333,166.333 96.1667,166.667 95.5,167C 98.1667,167.333 100.833,167.667 103.5,168C 102.167,168.333 100.833,168.667 99.5,169C 104.167,169.333 108.833,169.667 113.5,170C 112.833,170.333 112.167,170.667 111.5,171C 113.5,171.333 115.5,171.667 117.5,172C 116.833,172.333 116.167,172.667 115.5,173C 120.167,173.333 124.833,173.667 129.5,174C 128.167,174.333 126.833,174.667 125.5,175C 129.464,176.821 134.797,177.821 141.5,178C 140.833,178.333 140.167,178.667 139.5,179C 141.5,179.333 143.5,179.667 145.5,180C 144.833,180.333 144.167,180.667 143.5,181C 148.167,181.333 152.833,181.667 157.5,182C 156.833,182.333 156.167,182.667 155.5,183C 157.5,183.333 159.5,183.667 161.5,184C 160.833,184.333 160.167,184.667 159.5,185C 164.351,185.174 169.018,185.674 173.5,186.5C 145.5,186.5 117.5,186.5 89.5,186.5C 85.6877,185.676 81.6877,185.176 77.5,185C 78.1667,184.667 78.8333,184.333 79.5,184C 76.8333,183.667 74.1667,183.333 71.5,183C 72.1667,182.667 72.8333,182.333 73.5,182C 69.5,181.667 65.5,181.333 61.5,181C 62.8333,180.667 64.1667,180.333 65.5,180C 60.8787,178.462 54.8787,177.462 47.5,177C 48.1667,176.667 48.8333,176.333 49.5,176C 47.5,175.667 45.5,175.333 43.5,175C 44.1667,174.667 44.8333,174.333 45.5,174C 40.8333,173.667 36.1667,173.333 31.5,173C 32.1667,172.667 32.8333,172.333 33.5,172C 31.5,171.667 29.5,171.333 27.5,171C 28.1667,170.667 28.8333,170.333 29.5,170C 24.8333,169.667 20.1667,169.333 15.5,169C 17.5,168.667 19.5,168.333 21.5,168C 18.1667,167.667 14.8333,167.333 11.5,167C 12.8333,166.667 14.1667,166.333 15.5,166C 8.66098,165.932 3.32765,165.098 -0.5,163.5C -0.5,156.167 -0.5,148.833 -0.5,141.5 Z"/></g>
<g><path style="opacity:1" fill="#c8dcf6" d="M 78.5,149.5 C 80.9664,148.366 83.633,148.199 86.5,149C 84.8807,149.236 83.8807,150.069 83.5,151.5C 83.8076,153.924 83.4742,156.257 82.5,158.5C 81.5159,155.572 81.1826,152.572 81.5,149.5C 80.5,149.5 79.5,149.5 78.5,149.5 Z"/></g>
<g><path style="opacity:1" fill="#c8dcf6" d="M 147.5,149.5 C 151.919,148.082 153.919,148.082 153.5,149.5C 152.833,161.5 152.167,161.5 151.5,149.5C 150.167,149.5 148.833,149.5 147.5,149.5 Z"/></g>
<g><path style="opacity:1" fill="#c4daf6" d="M 189.5,149.5 C 188.167,149.5 186.833,149.5 185.5,149.5C 185.5,150.5 185.5,151.5 185.5,152.5C 190.833,152.833 190.833,153.167 185.5,153.5C 185.785,155.288 185.452,156.955 184.5,158.5C 183.516,155.572 183.183,152.572 183.5,149.5C 186.124,148.212 188.124,148.212 189.5,149.5 Z"/></g>
<g><path style="opacity:1" fill="#c3d9f6" d="M 217.5,157.5 C 217.369,156.624 217.702,155.957 218.5,155.5C 219.85,156.95 221.516,157.617 223.5,157.5C 223.5,156.5 223.5,155.5 223.5,154.5C 221.692,154.509 220.025,154.009 218.5,153C 217.269,151.817 217.269,150.651 218.5,149.5C 220.432,148.48 222.432,148.313 224.5,149C 225.711,149.893 225.711,150.726 224.5,151.5C 222.907,149.34 221.24,149.173 219.5,151C 220.623,152.044 221.956,152.71 223.5,153C 225.527,154.396 225.86,156.062 224.5,158C 222.071,158.703 219.738,158.537 217.5,157.5 Z"/></g>
<g><path style="opacity:1" fill="#c2d9f6" d="M 253.5,148.5 C 256.346,148.03 258.679,148.863 260.5,151C 260.167,151.167 259.833,151.333 259.5,151.5C 258.15,150.05 256.484,149.383 254.5,149.5C 254.5,150.5 254.5,151.5 254.5,152.5C 258.937,152.305 260.604,154.139 259.5,158C 257.231,158.758 255.064,158.591 253,157.5C 252.312,156.668 252.479,156.002 253.5,155.5C 255.332,157.957 256.999,157.957 258.5,155.5C 256.614,154.594 254.78,153.594 253,152.5C 252.421,151.072 252.588,149.738 253.5,148.5 Z"/></g>
<g><path style="opacity:1" fill="#b3d0f4" d="M 53.5,155.5 C 53.719,156.675 53.3857,157.675 52.5,158.5C 51.7022,156.922 51.2022,155.256 51,153.5C 50.8455,156.525 49.3455,158.191 46.5,158.5C 45.5215,151.878 44.5215,151.878 43.5,158.5C 42.5258,156.257 42.1924,153.924 42.5,151.5C 42.5,150.5 42.5,149.5 42.5,148.5C 43.5,148.5 44.5,148.5 45.5,148.5C 47.1667,157.833 48.8333,157.833 50.5,148.5C 51.5,148.5 52.5,148.5 53.5,148.5C 53.5,150.833 53.5,153.167 53.5,155.5 Z"/></g>
<g><path style="opacity:1" fill="#b1cff4" d="M 115.5,158.5 C 114.508,158.672 113.842,158.338 113.5,157.5C 112.226,154.505 111.892,151.505 112.5,148.5C 113.427,150.113 114.261,151.779 115,153.5C 116.202,147.406 118.035,147.073 120.5,152.5C 121.167,151.167 121.833,149.833 122.5,148.5C 123.73,152.162 123.063,155.495 120.5,158.5C 118.769,150.57 117.102,150.57 115.5,158.5 Z"/></g>
<g><path style="opacity:1" fill="#1e77e8" d="M -0.5,163.5 C 3.32765,165.098 8.66098,165.932 15.5,166C 14.1667,166.333 12.8333,166.667 11.5,167C 14.8333,167.333 18.1667,167.667 21.5,168C 19.5,168.333 17.5,168.667 15.5,169C 20.1667,169.333 24.8333,169.667 29.5,170C 28.8333,170.333 28.1667,170.667 27.5,171C 29.5,171.333 31.5,171.667 33.5,172C 32.8333,172.333 32.1667,172.667 31.5,173C 36.1667,173.333 40.8333,173.667 45.5,174C 44.8333,174.333 44.1667,174.667 43.5,175C 45.5,175.333 47.5,175.667 49.5,176C 48.8333,176.333 48.1667,176.667 47.5,177C 54.8787,177.462 60.8787,178.462 65.5,180C 64.1667,180.333 62.8333,180.667 61.5,181C 65.5,181.333 69.5,181.667 73.5,182C 72.8333,182.333 72.1667,182.667 71.5,183C 74.1667,183.333 76.8333,183.667 79.5,184C 78.8333,184.333 78.1667,184.667 77.5,185C 81.6877,185.176 85.6877,185.676 89.5,186.5C 59.5,186.5 29.5,186.5 -0.5,186.5C -0.5,178.833 -0.5,171.167 -0.5,163.5 Z"/></g>
</svg>
