<?xml version="1.0" encoding="UTF-8"?>
<!DOCTYPE svg PUBLIC "-//W3C//DTD SVG 1.1//EN" "http://www.w3.org/Graphics/SVG/1.1/DTD/svg11.dtd">
<svg xmlns="http://www.w3.org/2000/svg" version="1.1" width="282px" height="199px" style="shape-rendering:geometricPrecision; text-rendering:geometricPrecision; image-rendering:optimizeQuality; fill-rule:evenodd; clip-rule:evenodd" xmlns:xlink="http://www.w3.org/1999/xlink">
<g><path style="opacity:1" fill="#e3e9e8" d="M -0.5,-0.5 C 1.16667,-0.5 2.83333,-0.5 4.5,-0.5C 2.5,0.833333 0.833333,2.5 -0.5,4.5C -0.5,2.83333 -0.5,1.16667 -0.5,-0.5 Z"/></g>
<g><path style="opacity:1" fill="#5bb35f" d="M 4.5,-0.5 C 12.8333,-0.5 21.1667,-0.5 29.5,-0.5C 32.6414,0.321287 35.9748,0.821287 39.5,1C 37.5,1.33333 35.5,1.66667 33.5,2C 39.5,2.33333 45.5,2.66667 51.5,3C 49.5,3.33333 47.5,3.66667 45.5,4C 48.8333,4.33333 52.1667,4.66667 55.5,5C 53.5,5.33333 51.5,5.66667 49.5,6C 54.8333,6.33333 60.1667,6.66667 65.5,7C 64.1667,7.33333 62.8333,7.66667 61.5,8C 63.5,8.33333 65.5,8.66667 67.5,9C 66.8333,9.33333 66.1667,9.66667 65.5,10C 70.1667,10.3333 74.8333,10.6667 79.5,11C 78.8333,11.3333 78.1667,11.6667 77.5,12C 79.5,12.3333 81.5,12.6667 83.5,13C 82.8333,13.3333 82.1667,13.6667 81.5,14C 86.1667,14.3333 90.8333,14.6667 95.5,15C 93.5,15.3333 91.5,15.6667 89.5,16C 92.8333,16.3333 96.1667,16.6667 99.5,17C 97.5,17.3333 95.5,17.6667 93.5,18C 99.5,18.3333 105.5,18.6667 111.5,19C 109.5,19.3333 107.5,19.6667 105.5,20C 108.833,20.3333 112.167,20.6667 115.5,21C 113.5,21.3333 111.5,21.6667 109.5,22C 114.167,22.3333 118.833,22.6667 123.5,23C 122.833,23.3333 122.167,23.6667 121.5,24C 123.5,24.3333 125.5,24.6667 127.5,25C 126.833,25.3333 126.167,25.6667 125.5,26C 130.167,26.3333 134.833,26.6667 139.5,27C 138.833,27.3333 138.167,27.6667 137.5,28C 139.5,28.3333 141.5,28.6667 143.5,29C 142.833,29.3333 142.167,29.6667 141.5,30C 146.167,30.3333 150.833,30.6667 155.5,31C 153.5,31.3333 151.5,31.6667 149.5,32C 152.833,32.3333 156.167,32.6667 159.5,33C 157.5,33.3333 155.5,33.6667 153.5,34C 159.5,34.3333 165.5,34.6667 171.5,35C 169.5,35.3333 167.5,35.6667 165.5,36C 168.833,36.3333 172.167,36.6667 175.5,37C 173.5,37.3333 171.5,37.6667 169.5,38C 174.167,38.3333 178.833,38.6667 183.5,39C 182.833,39.3333 182.167,39.6667 181.5,40C 183.5,40.3333 185.5,40.6667 187.5,41C 186.833,41.3333 186.167,41.6667 185.5,42C 190.167,42.3333 194.833,42.6667 199.5,43C 198.833,43.3333 198.167,43.6667 197.5,44C 199.5,44.3333 201.5,44.6667 203.5,45C 202.167,45.3333 200.833,45.6667 199.5,46C 204.833,46.3333 210.167,46.6667 215.5,47C 213.5,47.3333 211.5,47.6667 209.5,48C 212.833,48.3333 216.167,48.6667 219.5,49C 217.5,49.3333 215.5,49.6667 213.5,50C 219.5,50.3333 225.5,50.6667 231.5,51C 229.5,51.3333 227.5,51.6667 225.5,52C 228.833,52.3333 232.167,52.6667 235.5,53C 233.5,53.3333 231.5,53.6667 229.5,54C 233.917,54.2275 238.25,54.7275 242.5,55.5C 241,59.9965 238.667,63.9965 235.5,67.5C 211.833,67.5 188.167,67.5 164.5,67.5C 159.714,64.2614 155.047,60.7614 150.5,57C 150.603,52.4355 148.436,49.6022 144,48.5C 140.323,49.8554 138.656,52.522 139,56.5C 137.961,57.7101 136.794,58.7101 135.5,59.5C 132.359,58.6787 129.025,58.1787 125.5,58C 127.5,57.6667 129.5,57.3333 131.5,57C 128.167,56.6667 124.833,56.3333 121.5,56C 123.5,55.6667 125.5,55.3333 127.5,55C 122.833,54.6667 118.167,54.3333 113.5,54C 114.167,53.6667 114.833,53.3333 115.5,53C 113.5,52.6667 111.5,52.3333 109.5,52C 110.167,51.6667 110.833,51.3333 111.5,51C 106.833,50.6667 102.167,50.3333 97.5,50C 98.1667,49.6667 98.8333,49.3333 99.5,49C 97.5,48.6667 95.5,48.3333 93.5,48C 94.1667,47.6667 94.8333,47.3333 95.5,47C 90.8333,46.6667 86.1667,46.3333 81.5,46C 83.5,45.6667 85.5,45.3333 87.5,45C 84.1667,44.6667 80.8333,44.3333 77.5,44C 79.5,43.6667 81.5,43.3333 83.5,43C 77.5,42.6667 71.5,42.3333 65.5,42C 67.5,41.6667 69.5,41.3333 71.5,41C 68.1667,40.6667 64.8333,40.3333 61.5,40C 63.5,39.6667 65.5,39.3333 67.5,39C 62.8333,38.6667 58.1667,38.3333 53.5,38C 54.1667,37.6667 54.8333,37.3333 55.5,37C 53.5,36.6667 51.5,36.3333 49.5,36C 50.1667,35.6667 50.8333,35.3333 51.5,35C 46.8333,34.6667 42.1667,34.3333 37.5,34C 38.1667,33.6667 38.8333,33.3333 39.5,33C 37.5,32.6667 35.5,32.3333 33.5,32C 34.1667,31.6667 34.8333,31.3333 35.5,31C 30.8333,30.6667 26.1667,30.3333 21.5,30C 23.5,29.6667 25.5,29.3333 27.5,29C 24.1667,28.6667 20.8333,28.3333 17.5,28C 19.5,27.6667 21.5,27.3333 23.5,27C 17.5,26.6667 11.5,26.3333 5.5,26C 7.5,25.6667 9.5,25.3333 11.5,25C 8.16667,24.6667 4.83333,24.3333 1.5,24C 3.5,23.6667 5.5,23.3333 7.5,23C 4.85397,22.5026 2.1873,22.3359 -0.5,22.5C -0.5,16.5 -0.5,10.5 -0.5,4.5C 0.833333,2.5 2.5,0.833333 4.5,-0.5 Z"/></g>
<g><path style="opacity:1" fill="#5db461" d="M 29.5,-0.5 C 49.5,-0.5 69.5,-0.5 89.5,-0.5C 92.6414,0.321287 95.9748,0.821287 99.5,1C 97.5,1.33333 95.5,1.66667 93.5,2C 99.5,2.33333 105.5,2.66667 111.5,3C 109.5,3.33333 107.5,3.66667 105.5,4C 108.167,4.33333 110.833,4.66667 113.5,5C 112.167,5.33333 110.833,5.66667 109.5,6C 114.167,6.33333 118.833,6.66667 123.5,7C 122.167,7.33333 120.833,7.66667 119.5,8C 122.167,8.33333 124.833,8.66667 127.5,9C 125.5,9.33333 123.5,9.66667 121.5,10C 127.5,10.3333 133.5,10.6667 139.5,11C 138.167,11.3333 136.833,11.6667 135.5,12C 138.167,12.3333 140.833,12.6667 143.5,13C 141.5,13.3333 139.5,13.6667 137.5,14C 143.5,14.3333 149.5,14.6667 155.5,15C 153.5,15.3333 151.5,15.6667 149.5,16C 152.833,16.3333 156.167,16.6667 159.5,17C 157.5,17.3333 155.5,17.6667 153.5,18C 158.833,18.3333 164.167,18.6667 169.5,19C 168.167,19.3333 166.833,19.6667 165.5,20C 167.5,20.3333 169.5,20.6667 171.5,21C 170.833,21.3333 170.167,21.6667 169.5,22C 174.167,22.3333 178.833,22.6667 183.5,23C 181.5,23.3333 179.5,23.6667 177.5,24C 180.833,24.3333 184.167,24.6667 187.5,25C 185.5,25.3333 183.5,25.6667 181.5,26C 187.5,26.3333 193.5,26.6667 199.5,27C 197.5,27.3333 195.5,27.6667 193.5,28C 196.833,28.3333 200.167,28.6667 203.5,29C 201.5,29.3333 199.5,29.6667 197.5,30C 202.167,30.3333 206.833,30.6667 211.5,31C 210.833,31.3333 210.167,31.6667 209.5,32C 212.167,32.3333 214.833,32.6667 217.5,33C 216.167,33.3333 214.833,33.6667 213.5,34C 218.167,34.3333 222.833,34.6667 227.5,35C 226.833,35.3333 226.167,35.6667 225.5,36C 228.167,36.3333 230.833,36.6667 233.5,37C 232.167,37.3333 230.833,37.6667 229.5,38C 234.167,38.3333 238.833,38.6667 243.5,39C 241.5,39.3333 239.5,39.6667 237.5,40C 240.833,40.3333 244.167,40.6667 247.5,41C 245.5,41.3333 243.5,41.6667 241.5,42C 247.5,42.3333 253.5,42.6667 259.5,43C 257.5,43.3333 255.5,43.6667 253.5,44C 256.833,44.3333 260.167,44.6667 263.5,45C 261.5,45.3333 259.5,45.6667 257.5,46C 262.833,46.3333 268.167,46.6667 273.5,47C 272.167,47.3333 270.833,47.6667 269.5,48C 271.5,48.3333 273.5,48.6667 275.5,49C 274.833,49.3333 274.167,49.6667 273.5,50C 276.146,50.4974 278.813,50.6641 281.5,50.5C 281.5,66.5 281.5,82.5 281.5,98.5C 279.777,96.8363 276.444,96.0029 271.5,96C 272.833,95.6667 274.167,95.3333 275.5,95C 270.833,94.6667 266.167,94.3333 261.5,94C 263.5,93.6667 265.5,93.3333 267.5,93C 264.167,92.6667 260.833,92.3333 257.5,92C 259.5,91.6667 261.5,91.3333 263.5,91C 257.5,90.6667 251.5,90.3333 245.5,90C 247.5,89.6667 249.5,89.3333 251.5,89C 248.167,88.6667 244.833,88.3333 241.5,88C 243.5,87.6667 245.5,87.3333 247.5,87C 242.167,86.6667 236.833,86.3333 231.5,86C 232.833,85.6667 234.167,85.3333 235.5,85C 233.527,84.5045 231.527,84.3379 229.5,84.5C 234.99,76.1952 240.49,67.8618 246,59.5C 251.102,59.0734 253.102,56.4067 252,51.5C 249,48.8333 246,48.8333 243,51.5C 242.51,52.7932 242.343,54.1266 242.5,55.5C 238.25,54.7275 233.917,54.2275 229.5,54C 231.5,53.6667 233.5,53.3333 235.5,53C 232.167,52.6667 228.833,52.3333 225.5,52C 227.5,51.6667 229.5,51.3333 231.5,51C 225.5,50.6667 219.5,50.3333 213.5,50C 215.5,49.6667 217.5,49.3333 219.5,49C 216.167,48.6667 212.833,48.3333 209.5,48C 211.5,47.6667 213.5,47.3333 215.5,47C 210.167,46.6667 204.833,46.3333 199.5,46C 200.833,45.6667 202.167,45.3333 203.5,45C 201.5,44.6667 199.5,44.3333 197.5,44C 198.167,43.6667 198.833,43.3333 199.5,43C 194.833,42.6667 190.167,42.3333 185.5,42C 186.167,41.6667 186.833,41.3333 187.5,41C 185.5,40.6667 183.5,40.3333 181.5,40C 182.167,39.6667 182.833,39.3333 183.5,39C 178.833,38.6667 174.167,38.3333 169.5,38C 171.5,37.6667 173.5,37.3333 175.5,37C 172.167,36.6667 168.833,36.3333 165.5,36C 167.5,35.6667 169.5,35.3333 171.5,35C 165.5,34.6667 159.5,34.3333 153.5,34C 155.5,33.6667 157.5,33.3333 159.5,33C 156.167,32.6667 152.833,32.3333 149.5,32C 151.5,31.6667 153.5,31.3333 155.5,31C 150.833,30.6667 146.167,30.3333 141.5,30C 142.167,29.6667 142.833,29.3333 143.5,29C 141.5,28.6667 139.5,28.3333 137.5,28C 138.167,27.6667 138.833,27.3333 139.5,27C 134.833,26.6667 130.167,26.3333 125.5,26C 126.167,25.6667 126.833,25.3333 127.5,25C 125.5,24.6667 123.5,24.3333 121.5,24C 122.167,23.6667 122.833,23.3333 123.5,23C 118.833,22.6667 114.167,22.3333 109.5,22C 111.5,21.6667 113.5,21.3333 115.5,21C 112.167,20.6667 108.833,20.3333 105.5,20C 107.5,19.6667 109.5,19.3333 111.5,19C 105.5,18.6667 99.5,18.3333 93.5,18C 95.5,17.6667 97.5,17.3333 99.5,17C 96.1667,16.6667 92.8333,16.3333 89.5,16C 91.5,15.6667 93.5,15.3333 95.5,15C 90.8333,14.6667 86.1667,14.3333 81.5,14C 82.1667,13.6667 82.8333,13.3333 83.5,13C 81.5,12.6667 79.5,12.3333 77.5,12C 78.1667,11.6667 78.8333,11.3333 79.5,11C 74.8333,10.6667 70.1667,10.3333 65.5,10C 66.1667,9.66667 66.8333,9.33333 67.5,9C 65.5,8.66667 63.5,8.33333 61.5,8C 62.8333,7.66667 64.1667,7.33333 65.5,7C 60.1667,6.66667 54.8333,6.33333 49.5,6C 51.5,5.66667 53.5,5.33333 55.5,5C 52.1667,4.66667 48.8333,4.33333 45.5,4C 47.5,3.66667 49.5,3.33333 51.5,3C 45.5,2.66667 39.5,2.33333 33.5,2C 35.5,1.66667 37.5,1.33333 39.5,1C 35.9748,0.821287 32.6414,0.321287 29.5,-0.5 Z"/></g>
<g><path style="opacity:1" fill="#61b765" d="M 89.5,-0.5 C 151.5,-0.5 213.5,-0.5 275.5,-0.5C 278.086,0.415309 280.086,2.08198 281.5,4.5C 281.5,19.8333 281.5,35.1667 281.5,50.5C 278.813,50.6641 276.146,50.4974 273.5,50C 274.167,49.6667 274.833,49.3333 275.5,49C 273.5,48.6667 271.5,48.3333 269.5,48C 270.833,47.6667 272.167,47.3333 273.5,47C 268.167,46.6667 262.833,46.3333 257.5,46C 259.5,45.6667 261.5,45.3333 263.5,45C 260.167,44.6667 256.833,44.3333 253.5,44C 255.5,43.6667 257.5,43.3333 259.5,43C 253.5,42.6667 247.5,42.3333 241.5,42C 243.5,41.6667 245.5,41.3333 247.5,41C 244.167,40.6667 240.833,40.3333 237.5,40C 239.5,39.6667 241.5,39.3333 243.5,39C 238.833,38.6667 234.167,38.3333 229.5,38C 230.833,37.6667 232.167,37.3333 233.5,37C 230.833,36.6667 228.167,36.3333 225.5,36C 226.167,35.6667 226.833,35.3333 227.5,35C 222.833,34.6667 218.167,34.3333 213.5,34C 214.833,33.6667 216.167,33.3333 217.5,33C 214.833,32.6667 212.167,32.3333 209.5,32C 210.167,31.6667 210.833,31.3333 211.5,31C 206.833,30.6667 202.167,30.3333 197.5,30C 199.5,29.6667 201.5,29.3333 203.5,29C 200.167,28.6667 196.833,28.3333 193.5,28C 195.5,27.6667 197.5,27.3333 199.5,27C 193.5,26.6667 187.5,26.3333 181.5,26C 183.5,25.6667 185.5,25.3333 187.5,25C 184.167,24.6667 180.833,24.3333 177.5,24C 179.5,23.6667 181.5,23.3333 183.5,23C 178.833,22.6667 174.167,22.3333 169.5,22C 170.167,21.6667 170.833,21.3333 171.5,21C 169.5,20.6667 167.5,20.3333 165.5,20C 166.833,19.6667 168.167,19.3333 169.5,19C 164.167,18.6667 158.833,18.3333 153.5,18C 155.5,17.6667 157.5,17.3333 159.5,17C 156.167,16.6667 152.833,16.3333 149.5,16C 151.5,15.6667 153.5,15.3333 155.5,15C 149.5,14.6667 143.5,14.3333 137.5,14C 139.5,13.6667 141.5,13.3333 143.5,13C 140.833,12.6667 138.167,12.3333 135.5,12C 136.833,11.6667 138.167,11.3333 139.5,11C 133.5,10.6667 127.5,10.3333 121.5,10C 123.5,9.66667 125.5,9.33333 127.5,9C 124.833,8.66667 122.167,8.33333 119.5,8C 120.833,7.66667 122.167,7.33333 123.5,7C 118.833,6.66667 114.167,6.33333 109.5,6C 110.833,5.66667 112.167,5.33333 113.5,5C 110.833,4.66667 108.167,4.33333 105.5,4C 107.5,3.66667 109.5,3.33333 111.5,3C 105.5,2.66667 99.5,2.33333 93.5,2C 95.5,1.66667 97.5,1.33333 99.5,1C 95.9748,0.821287 92.6414,0.321287 89.5,-0.5 Z"/></g>
<g><path style="opacity:1" fill="#e0e8e5" d="M 275.5,-0.5 C 277.5,-0.5 279.5,-0.5 281.5,-0.5C 281.5,1.16667 281.5,2.83333 281.5,4.5C 280.086,2.08198 278.086,0.415309 275.5,-0.5 Z"/></g>
<g><path style="opacity:1" fill="#57af5b" d="M -0.5,22.5 C 2.1873,22.3359 4.85397,22.5026 7.5,23C 5.5,23.3333 3.5,23.6667 1.5,24C 4.83333,24.3333 8.16667,24.6667 11.5,25C 9.5,25.3333 7.5,25.6667 5.5,26C 11.5,26.3333 17.5,26.6667 23.5,27C 21.5,27.3333 19.5,27.6667 17.5,28C 20.8333,28.3333 24.1667,28.6667 27.5,29C 25.5,29.3333 23.5,29.6667 21.5,30C 26.1667,30.3333 30.8333,30.6667 35.5,31C 34.8333,31.3333 34.1667,31.6667 33.5,32C 35.5,32.3333 37.5,32.6667 39.5,33C 38.8333,33.3333 38.1667,33.6667 37.5,34C 42.1667,34.3333 46.8333,34.6667 51.5,35C 50.8333,35.3333 50.1667,35.6667 49.5,36C 51.5,36.3333 53.5,36.6667 55.5,37C 54.8333,37.3333 54.1667,37.6667 53.5,38C 58.1667,38.3333 62.8333,38.6667 67.5,39C 65.5,39.3333 63.5,39.6667 61.5,40C 64.8333,40.3333 68.1667,40.6667 71.5,41C 69.5,41.3333 67.5,41.6667 65.5,42C 71.5,42.3333 77.5,42.6667 83.5,43C 81.5,43.3333 79.5,43.6667 77.5,44C 80.8333,44.3333 84.1667,44.6667 87.5,45C 85.5,45.3333 83.5,45.6667 81.5,46C 86.1667,46.3333 90.8333,46.6667 95.5,47C 94.8333,47.3333 94.1667,47.6667 93.5,48C 95.5,48.3333 97.5,48.6667 99.5,49C 98.8333,49.3333 98.1667,49.6667 97.5,50C 102.167,50.3333 106.833,50.6667 111.5,51C 110.833,51.3333 110.167,51.6667 109.5,52C 111.5,52.3333 113.5,52.6667 115.5,53C 114.833,53.3333 114.167,53.6667 113.5,54C 118.167,54.3333 122.833,54.6667 127.5,55C 125.5,55.3333 123.5,55.6667 121.5,56C 124.833,56.3333 128.167,56.6667 131.5,57C 129.5,57.3333 127.5,57.6667 125.5,58C 129.025,58.1787 132.359,58.6787 135.5,59.5C 133.167,62.5 130.5,65.1667 127.5,67.5C 98.8333,67.5 70.1667,67.5 41.5,67.5C 41.6665,58.1607 41.4998,48.8274 41,39.5C 40.5001,53.1626 40.3334,66.8293 40.5,80.5C 37.4017,80.5875 37.0684,80.0875 39.5,79C 34.8333,78.6667 30.1667,78.3333 25.5,78C 27.5,77.6667 29.5,77.3333 31.5,77C 28.1667,76.6667 24.8333,76.3333 21.5,76C 23.5,75.6667 25.5,75.3333 27.5,75C 21.5,74.6667 15.5,74.3333 9.5,74C 11.5,73.6667 13.5,73.3333 15.5,73C 12.1667,72.6667 8.83333,72.3333 5.5,72C 7.5,71.6667 9.5,71.3333 11.5,71C 7.51383,70.5012 3.51383,70.3345 -0.5,70.5C -0.5,54.5 -0.5,38.5 -0.5,22.5 Z"/></g>
<g><path style="opacity:1" fill="#d9edda" d="M 164.5,67.5 C 164.5,68.1667 164.833,68.5 165.5,68.5C 165.611,69.1174 165.944,69.6174 166.5,70C 171.81,69.1558 174.477,71.3225 174.5,76.5C 172.221,73.5578 169.221,71.8911 165.5,71.5C 165.5,72.5 165.5,73.5 165.5,74.5C 159.372,69.543 153.372,64.3763 147.5,59C 145.5,58.3333 143.5,58.3333 141.5,59C 135.667,65.1667 129.833,71.3333 124,77.5C 123.697,79.8884 122.863,82.0551 121.5,84C 117.478,84.5223 113.645,84.0223 110,82.5C 107.162,82.7968 104.329,83.1301 101.5,83.5C 98.306,85.1641 94.9727,86.6641 91.5,88C 85.3333,96.8333 79.1667,105.667 73,114.5C 71.8732,117.377 71.2065,120.377 71,123.5C 70.6174,124.056 70.1174,124.389 69.5,124.5C 67.9582,125.301 66.2915,125.634 64.5,125.5C 63.7101,124.206 62.7101,123.039 61.5,122C 56.1667,121.333 50.8333,121.333 45.5,122C 43.4062,123.352 41.0728,123.852 38.5,123.5C 35.3295,119.189 36.1628,115.856 41,113.5C 47.4568,117.764 54.6235,119.264 62.5,118C 64.1352,116.252 66.1352,115.085 68.5,114.5C 74.8052,105.029 81.3052,95.6953 88,86.5C 86.7239,83.112 87.5573,80.2786 90.5,78C 96.6293,79.4114 102.963,79.7448 109.5,79C 113.3,76.8706 117.3,75.204 121.5,74C 123.041,72.6288 124.375,71.1288 125.5,69.5C 126.5,69.1667 127.167,68.5 127.5,67.5C 130.5,65.1667 133.167,62.5 135.5,59.5C 136.794,58.7101 137.961,57.7101 139,56.5C 138.656,52.522 140.323,49.8554 144,48.5C 148.436,49.6022 150.603,52.4355 150.5,57C 155.047,60.7614 159.714,64.2614 164.5,67.5 Z"/></g>
<g><path style="opacity:1" fill="#d3e8d5" d="M 11.5,61.5 C 13.0615,63.3717 14.0615,65.7051 14.5,68.5C 15.2208,66.314 15.8875,64.1474 16.5,62C 18.1667,61.3333 19.8333,61.3333 21.5,62C 22.6105,64.7372 22.7772,67.5706 22,70.5C 19.4823,71.7914 17.149,71.4581 15,69.5C 14.0546,69.9054 13.3879,70.572 13,71.5C 11.47,70.0798 9.63666,69.0798 7.5,68.5C 9.09811,66.3021 10.4314,63.9687 11.5,61.5 Z"/></g>
<g><path style="opacity:1" fill="#65b568" d="M 18.5,62.5 C 22.0172,64.6103 22.3505,67.277 19.5,70.5C 17.2251,68.1682 16.8918,65.5016 18.5,62.5 Z"/></g>
<g><path style="opacity:1" fill="#7fc182" d="M 11.5,64.5 C 12.4345,65.5676 12.7678,66.901 12.5,68.5C 11.448,68.6495 10.448,68.4828 9.5,68C 10.305,66.8873 10.9717,65.7206 11.5,64.5 Z"/></g>
<g><path style="opacity:1" fill="#c3e0c5" d="M 24.5,61.5 C 26.4672,61.2606 28.3005,61.5939 30,62.5C 30.7772,65.4294 30.6105,68.2628 29.5,71C 27.5594,71.7429 25.7261,71.5762 24,70.5C 23.2642,67.408 23.4309,64.408 24.5,61.5 Z"/></g>
<g><path style="opacity:1" fill="#56ae5a" d="M 26.5,62.5 C 28.9506,64.9162 29.1173,67.5829 27,70.5C 25.1884,67.9543 25.0217,65.2877 26.5,62.5 Z"/></g>
<g><path style="opacity:1" fill="#78bf7b" d="M 41.5,67.5 C 70.1667,67.5 98.8333,67.5 127.5,67.5C 127.167,68.5 126.5,69.1667 125.5,69.5C 97.5,68.8333 69.5,68.1667 41.5,67.5 Z"/></g>
<g><path style="opacity:1" fill="#7bc17e" d="M 164.5,67.5 C 188.167,67.5 211.833,67.5 235.5,67.5C 235.672,68.4916 235.338,69.1583 234.5,69.5C 211.673,68.5025 188.673,68.1692 165.5,68.5C 164.833,68.5 164.5,68.1667 164.5,67.5 Z"/></g>
<g><path style="opacity:1" fill="#daeddb" d="M 229.5,84.5 C 227.429,88.5171 225.762,92.6838 224.5,97C 221.248,97.7913 218.248,97.2913 215.5,95.5C 210.536,96.7795 205.536,97.7795 200.5,98.5C 200.5,97.1667 200.5,95.8333 200.5,94.5C 204.749,93.4574 209.082,92.6241 213.5,92C 216.291,90.2114 219.291,88.8781 222.5,88C 226.723,81.9504 230.723,75.7837 234.5,69.5C 235.338,69.1583 235.672,68.4916 235.5,67.5C 238.667,63.9965 241,59.9965 242.5,55.5C 242.343,54.1266 242.51,52.7932 243,51.5C 246,48.8333 249,48.8333 252,51.5C 253.102,56.4067 251.102,59.0734 246,59.5C 240.49,67.8618 234.99,76.1952 229.5,84.5 Z"/></g>
<g><path style="opacity:1" fill="#5ab15e" d="M 165.5,68.5 C 188.673,68.1692 211.673,68.5025 234.5,69.5C 230.723,75.7837 226.723,81.9504 222.5,88C 219.291,88.8781 216.291,90.2114 213.5,92C 209.082,92.6241 204.749,93.4574 200.5,94.5C 200.167,94.5 199.833,94.5 199.5,94.5C 199.389,93.8826 199.056,93.3826 198.5,93C 196.5,92.6667 194.5,92.3333 192.5,92C 186.915,86.574 180.915,81.7407 174.5,77.5C 174.5,77.1667 174.5,76.8333 174.5,76.5C 174.477,71.3225 171.81,69.1558 166.5,70C 165.944,69.6174 165.611,69.1174 165.5,68.5 Z"/></g>
<g><path style="opacity:1" fill="#f5faf6" d="M 174.5,76.5 C 174.5,76.8333 174.5,77.1667 174.5,77.5C 174.134,78.6946 173.301,79.3613 172,79.5C 169.683,78.0148 167.516,76.3481 165.5,74.5C 165.5,73.5 165.5,72.5 165.5,71.5C 169.221,71.8911 172.221,73.5578 174.5,76.5 Z"/></g>
<g><path style="opacity:1" fill="#d3ead4" d="M 165.5,74.5 C 167.516,76.3481 169.683,78.0148 172,79.5C 173.301,79.3613 174.134,78.6946 174.5,77.5C 180.915,81.7407 186.915,86.574 192.5,92C 194.5,92.3333 196.5,92.6667 198.5,93C 199.056,93.3826 199.389,93.8826 199.5,94.5C 196.833,94.1667 194.167,93.8333 191.5,93.5C 192.127,98.1189 194.794,100.119 199.5,99.5C 198.375,102.128 196.375,102.961 193.5,102C 191.676,97.7917 189.01,94.1251 185.5,91C 181.5,87.6667 177.5,84.3333 173.5,81C 168.19,81.8442 165.523,79.6775 165.5,74.5 Z"/></g>
<g><path style="opacity:1" fill="#55ae59" d="M 165.5,74.5 C 165.523,79.6775 168.19,81.8442 173.5,81C 177.5,84.3333 181.5,87.6667 185.5,91C 189.01,94.1251 191.676,97.7917 193.5,102C 196.375,102.961 198.375,102.128 199.5,99.5C 200.167,99.5 200.5,99.1667 200.5,98.5C 205.536,97.7795 210.536,96.7795 215.5,95.5C 218.248,97.2913 221.248,97.7913 224.5,97C 225.762,92.6838 227.429,88.5171 229.5,84.5C 231.527,84.3379 233.527,84.5045 235.5,85C 234.167,85.3333 232.833,85.6667 231.5,86C 236.833,86.3333 242.167,86.6667 247.5,87C 245.5,87.3333 243.5,87.6667 241.5,88C 244.833,88.3333 248.167,88.6667 251.5,89C 249.5,89.3333 247.5,89.6667 245.5,90C 251.5,90.3333 257.5,90.6667 263.5,91C 261.5,91.3333 259.5,91.6667 257.5,92C 260.833,92.3333 264.167,92.6667 267.5,93C 265.5,93.3333 263.5,93.6667 261.5,94C 266.167,94.3333 270.833,94.6667 275.5,95C 274.167,95.3333 272.833,95.6667 271.5,96C 276.444,96.0029 279.777,96.8363 281.5,98.5C 281.5,113.833 281.5,129.167 281.5,144.5C 278.813,144.664 276.146,144.497 273.5,144C 275.5,143.667 277.5,143.333 279.5,143C 274.833,142.667 270.167,142.333 265.5,142C 266.167,141.667 266.833,141.333 267.5,141C 265.5,140.667 263.5,140.333 261.5,140C 262.167,139.667 262.833,139.333 263.5,139C 258.833,138.667 254.167,138.333 249.5,138C 250.167,137.667 250.833,137.333 251.5,137C 249.5,136.667 247.5,136.333 245.5,136C 246.167,135.667 246.833,135.333 247.5,135C 242.833,134.667 238.167,134.333 233.5,134C 235.5,133.667 237.5,133.333 239.5,133C 236.167,132.667 232.833,132.333 229.5,132C 231.5,131.667 233.5,131.333 235.5,131C 229.5,130.667 223.5,130.333 217.5,130C 219.5,129.667 221.5,129.333 223.5,129C 220.167,128.667 216.833,128.333 213.5,128C 215.708,127.809 217.708,127.309 219.5,126.5C 188.006,125.675 138.006,125.008 69.5,124.5C 70.1174,124.389 70.6174,124.056 71,123.5C 71.2065,120.377 71.8732,117.377 73,114.5C 79.1667,105.667 85.3333,96.8333 91.5,88C 94.9727,86.6641 98.306,85.1641 101.5,83.5C 104.329,83.1301 107.162,82.7968 110,82.5C 113.645,84.0223 117.478,84.5223 121.5,84C 122.863,82.0551 123.697,79.8884 124,77.5C 129.833,71.3333 135.667,65.1667 141.5,59C 143.5,58.3333 145.5,58.3333 147.5,59C 153.372,64.3763 159.372,69.543 165.5,74.5 Z"/></g>
<g><path style="opacity:1" fill="#f4faf5" d="M 199.5,94.5 C 199.833,94.5 200.167,94.5 200.5,94.5C 200.5,95.8333 200.5,97.1667 200.5,98.5C 200.5,99.1667 200.167,99.5 199.5,99.5C 194.794,100.119 192.127,98.1189 191.5,93.5C 194.167,93.8333 196.833,94.1667 199.5,94.5 Z"/></g>
<g><path style="opacity:1" fill="#52ab56" d="M 41.5,67.5 C 69.5,68.1667 97.5,68.8333 125.5,69.5C 124.375,71.1288 123.041,72.6288 121.5,74C 117.3,75.204 113.3,76.8706 109.5,79C 102.963,79.7448 96.6293,79.4114 90.5,78C 87.5573,80.2786 86.7239,83.112 88,86.5C 81.3052,95.6953 74.8052,105.029 68.5,114.5C 66.1352,115.085 64.1352,116.252 62.5,118C 54.6235,119.264 47.4568,117.764 41,113.5C 36.1628,115.856 35.3295,119.189 38.5,123.5C 37.1779,123.33 36.0113,123.663 35,124.5C 33.8904,122.963 32.3904,122.297 30.5,122.5C 30.5858,121.504 30.2524,120.671 29.5,120C 27.4024,119.322 25.4024,119.489 23.5,120.5C 20.5122,118.86 17.1789,118.026 13.5,118C 15.5,117.667 17.5,117.333 19.5,117C 16.1667,116.667 12.8333,116.333 9.5,116C 11.5,115.667 13.5,115.333 15.5,115C 10.1771,114.501 4.84372,114.334 -0.5,114.5C -0.5,99.8333 -0.5,85.1667 -0.5,70.5C 3.51383,70.3345 7.51383,70.5012 11.5,71C 9.5,71.3333 7.5,71.6667 5.5,72C 8.83333,72.3333 12.1667,72.6667 15.5,73C 13.5,73.3333 11.5,73.6667 9.5,74C 15.5,74.3333 21.5,74.6667 27.5,75C 25.5,75.3333 23.5,75.6667 21.5,76C 24.8333,76.3333 28.1667,76.6667 31.5,77C 29.5,77.3333 27.5,77.6667 25.5,78C 30.1667,78.3333 34.8333,78.6667 39.5,79C 37.0684,80.0875 37.4017,80.5875 40.5,80.5C 40.3334,66.8293 40.5001,53.1626 41,39.5C 41.4998,48.8274 41.6665,58.1607 41.5,67.5 Z"/></g>
<g><path style="opacity:1" fill="#4ca750" d="M -0.5,114.5 C 4.84372,114.334 10.1771,114.501 15.5,115C 13.5,115.333 11.5,115.667 9.5,116C 12.8333,116.333 16.1667,116.667 19.5,117C 17.5,117.333 15.5,117.667 13.5,118C 17.1789,118.026 20.5122,118.86 23.5,120.5C 23.2229,123.448 23.5562,126.281 24.5,129C 29.921,130.28 31.921,128.113 30.5,122.5C 32.3904,122.297 33.8904,122.963 35,124.5C 36.0113,123.663 37.1779,123.33 38.5,123.5C 41.0728,123.852 43.4062,123.352 45.5,122C 50.8333,121.333 56.1667,121.333 61.5,122C 62.7101,123.039 63.7101,124.206 64.5,125.5C 56.8261,125.334 49.1594,125.5 41.5,126C 47.4908,126.499 53.4908,126.666 59.5,126.5C 57.7078,127.309 55.7078,127.809 53.5,128C 56.8333,128.333 60.1667,128.667 63.5,129C 61.5,129.333 59.5,129.667 57.5,130C 63.5,130.333 69.5,130.667 75.5,131C 73.5,131.333 71.5,131.667 69.5,132C 72.8333,132.333 76.1667,132.667 79.5,133C 77.5,133.333 75.5,133.667 73.5,134C 79.5,134.333 85.5,134.667 91.5,135C 78.1667,135.667 78.1667,136.333 91.5,137C 89.5,137.333 87.5,137.667 85.5,138C 92.8333,138.333 100.167,138.667 107.5,139C 99.5,139.667 99.5,140.333 107.5,141C 105.5,141.333 103.5,141.667 101.5,142C 107.5,142.333 113.5,142.667 119.5,143C 117.5,143.333 115.5,143.667 113.5,144C 116.833,144.333 120.167,144.667 123.5,145C 120.167,146 116.833,147 113.5,148C 116.833,148.333 120.167,148.667 123.5,149C 121.5,149.333 119.5,149.667 117.5,150C 122.167,150.333 126.833,150.667 131.5,151C 129.381,151.342 129.047,152.175 130.5,153.5C 133.215,159.253 136.548,159.753 140.5,155C 139.619,154.292 138.953,153.458 138.5,152.5C 138.833,152.5 139.167,152.5 139.5,152.5C 141.467,153.632 143.3,153.299 145,151.5C 145.089,153.113 144.255,154.28 142.5,155C 143.094,155.464 143.761,155.631 144.5,155.5C 150.797,154.461 157.13,154.294 163.5,155C 161.5,155.333 159.5,155.667 157.5,156C 160.833,156.333 164.167,156.667 167.5,157C 165.5,157.333 163.5,157.667 161.5,158C 166.823,158.499 172.156,158.666 177.5,158.5C 178.167,158.5 178.5,158.833 178.5,159.5C 176.958,160.163 175.291,160.83 173.5,161.5C 180.811,162.331 188.144,162.831 195.5,163C 193.5,163.333 191.5,163.667 189.5,164C 202.833,164.667 202.833,165.333 189.5,166C 195.5,166.333 201.5,166.667 207.5,167C 205.5,167.333 203.5,167.667 201.5,168C 204.833,168.333 208.167,168.667 211.5,169C 209.5,169.333 207.5,169.667 205.5,170C 211.5,170.333 217.5,170.667 223.5,171C 221.5,171.333 219.5,171.667 217.5,172C 220.833,172.333 224.167,172.667 227.5,173C 225.5,173.333 223.5,173.667 221.5,174C 227.5,174.333 233.5,174.667 239.5,175C 237.5,175.333 235.5,175.667 233.5,176C 246.833,176.667 246.833,177.333 233.5,178C 240.833,178.333 248.167,178.667 255.5,179C 253.5,179.333 251.5,179.667 249.5,180C 252.833,180.333 256.167,180.667 259.5,181C 257.5,181.333 255.5,181.667 253.5,182C 258.167,182.333 262.833,182.667 267.5,183C 265.5,183.333 263.5,183.667 261.5,184C 264.833,184.333 268.167,184.667 271.5,185C 269.5,185.333 267.5,185.667 265.5,186C 270.823,186.499 276.156,186.666 281.5,186.5C 281.5,188.833 281.5,191.167 281.5,193.5C 280.692,195.22 279.692,196.887 278.5,198.5C 255.5,198.5 232.5,198.5 209.5,198.5C 209.918,197.778 210.584,197.278 211.5,197C 209.5,196.667 207.5,196.333 205.5,196C 206.833,195.667 208.167,195.333 209.5,195C 204.167,194.667 198.833,194.333 193.5,194C 194.167,193.667 194.833,193.333 195.5,193C 193.5,192.667 191.5,192.333 189.5,192C 190.833,191.667 192.167,191.333 193.5,191C 188.167,190.667 182.833,190.333 177.5,190C 179.5,189.667 181.5,189.333 183.5,189C 180.167,188.667 176.833,188.333 173.5,188C 175.5,187.667 177.5,187.333 179.5,187C 173.5,186.667 167.5,186.333 161.5,186C 163.5,185.667 165.5,185.333 167.5,185C 164.833,184.667 162.167,184.333 159.5,184C 160.833,183.667 162.167,183.333 163.5,183C 158.833,182.667 154.167,182.333 149.5,182C 150.833,181.667 152.167,181.333 153.5,181C 150.833,180.667 148.167,180.333 145.5,180C 147.5,179.667 149.5,179.333 151.5,179C 145.5,178.667 139.5,178.333 133.5,178C 134.833,177.667 136.167,177.333 137.5,177C 134.833,176.667 132.167,176.333 129.5,176C 131.5,175.667 133.5,175.333 135.5,175C 130.167,174.667 124.833,174.333 119.5,174C 120.833,173.667 122.167,173.333 123.5,173C 121.5,172.667 119.5,172.333 117.5,172C 118.167,171.667 118.833,171.333 119.5,171C 114.167,170.667 108.833,170.333 103.5,170C 104.833,169.667 106.167,169.333 107.5,169C 105.5,168.667 103.5,168.333 101.5,168C 102.167,167.667 102.833,167.333 103.5,167C 98.8333,166.667 94.1667,166.333 89.5,166C 91.5,165.667 93.5,165.333 95.5,165C 92.1667,164.667 88.8333,164.333 85.5,164C 87.5,163.667 89.5,163.333 91.5,163C 88.1832,162.502 84.8499,162.335 81.5,162.5C 81.0873,157.933 78.754,155.1 74.5,154C 77.564,156.207 79.564,159.041 80.5,162.5C 78.901,162.232 77.5676,162.566 76.5,163.5C 75.5266,163.013 74.5266,162.513 73.5,162C 75.5,161.667 77.5,161.333 79.5,161C 76.1667,160.667 72.8333,160.333 69.5,160C 71.5,159.667 73.5,159.333 75.5,159C 70.8333,158.667 66.1667,158.333 61.5,158C 62.1667,157.667 62.8333,157.333 63.5,157C 60.8333,156.667 58.1667,156.333 55.5,156C 56.8333,155.667 58.1667,155.333 59.5,155C 54.8333,154.667 50.1667,154.333 45.5,154C 46.1667,153.667 46.8333,153.333 47.5,153C 45.2922,152.809 43.2922,152.309 41.5,151.5C 39.6996,149.172 38.533,146.505 38,143.5C 36.9783,144.354 36.1449,145.354 35.5,146.5C 36.5244,147.852 37.5244,149.185 38.5,150.5C 38.5,150.833 38.5,151.167 38.5,151.5C 36.7867,149.15 34.4534,148.15 31.5,148.5C 23.5272,148.326 23.5272,147.826 31.5,147C 25.5,146.667 19.5,146.333 13.5,146C 15.5,145.667 17.5,145.333 19.5,145C 16.1667,144.667 12.8333,144.333 9.5,144C 11.5,143.667 13.5,143.333 15.5,143C 10.1771,142.501 4.84372,142.334 -0.5,142.5C -0.5,133.167 -0.5,123.833 -0.5,114.5 Z"/></g>
<g><path style="opacity:1" fill="#c0dec3" d="M 30.5,122.5 C 31.921,128.113 29.921,130.28 24.5,129C 23.5562,126.281 23.2229,123.448 23.5,120.5C 25.4024,119.489 27.4024,119.322 29.5,120C 30.2524,120.671 30.5858,121.504 30.5,122.5 Z"/></g>
<g><path style="opacity:1" fill="#4ea852" d="M 26.5,120.5 C 28.9506,122.916 29.1173,125.583 27,128.5C 25.1884,125.954 25.0217,123.288 26.5,120.5 Z"/></g>
<g><path style="opacity:1" fill="#68a96b" d="M 69.5,124.5 C 138.006,125.008 188.006,125.675 219.5,126.5C 166.167,126.5 112.833,126.5 59.5,126.5C 53.4908,126.666 47.4908,126.499 41.5,126C 49.1594,125.5 56.8261,125.334 64.5,125.5C 66.2915,125.634 67.9582,125.301 69.5,124.5 Z"/></g>
<g><path style="opacity:1" fill="#50aa54" d="M 59.5,126.5 C 112.833,126.5 166.167,126.5 219.5,126.5C 217.708,127.309 215.708,127.809 213.5,128C 216.833,128.333 220.167,128.667 223.5,129C 221.5,129.333 219.5,129.667 217.5,130C 223.5,130.333 229.5,130.667 235.5,131C 233.5,131.333 231.5,131.667 229.5,132C 232.833,132.333 236.167,132.667 239.5,133C 237.5,133.333 235.5,133.667 233.5,134C 238.167,134.333 242.833,134.667 247.5,135C 246.833,135.333 246.167,135.667 245.5,136C 247.5,136.333 249.5,136.667 251.5,137C 250.833,137.333 250.167,137.667 249.5,138C 254.167,138.333 258.833,138.667 263.5,139C 262.833,139.333 262.167,139.667 261.5,140C 263.5,140.333 265.5,140.667 267.5,141C 266.833,141.333 266.167,141.667 265.5,142C 270.167,142.333 274.833,142.667 279.5,143C 277.5,143.333 275.5,143.667 273.5,144C 276.146,144.497 278.813,144.664 281.5,144.5C 281.5,158.5 281.5,172.5 281.5,186.5C 276.156,186.666 270.823,186.499 265.5,186C 267.5,185.667 269.5,185.333 271.5,185C 268.167,184.667 264.833,184.333 261.5,184C 263.5,183.667 265.5,183.333 267.5,183C 262.833,182.667 258.167,182.333 253.5,182C 255.5,181.667 257.5,181.333 259.5,181C 256.167,180.667 252.833,180.333 249.5,180C 251.5,179.667 253.5,179.333 255.5,179C 248.167,178.667 240.833,178.333 233.5,178C 246.833,177.333 246.833,176.667 233.5,176C 235.5,175.667 237.5,175.333 239.5,175C 233.5,174.667 227.5,174.333 221.5,174C 223.5,173.667 225.5,173.333 227.5,173C 224.167,172.667 220.833,172.333 217.5,172C 219.5,171.667 221.5,171.333 223.5,171C 217.5,170.667 211.5,170.333 205.5,170C 207.5,169.667 209.5,169.333 211.5,169C 208.167,168.667 204.833,168.333 201.5,168C 203.5,167.667 205.5,167.333 207.5,167C 201.5,166.667 195.5,166.333 189.5,166C 202.833,165.333 202.833,164.667 189.5,164C 191.5,163.667 193.5,163.333 195.5,163C 188.144,162.831 180.811,162.331 173.5,161.5C 175.291,160.83 176.958,160.163 178.5,159.5C 184.797,163.237 187.63,161.57 187,154.5C 188.726,155.576 190.559,155.743 192.5,155C 193.731,153.817 193.731,152.651 192.5,151.5C 191.614,152.325 191.281,153.325 191.5,154.5C 188.09,154.616 186.756,152.95 187.5,149.5C 188.552,149.649 189.552,149.483 190.5,149C 186.63,147.863 184.797,149.363 185,153.5C 179.638,150.329 177.138,151.996 177.5,158.5C 172.156,158.666 166.823,158.499 161.5,158C 163.5,157.667 165.5,157.333 167.5,157C 164.167,156.667 160.833,156.333 157.5,156C 159.5,155.667 161.5,155.333 163.5,155C 157.13,154.294 150.797,154.461 144.5,155.5C 146.243,153.874 146.743,151.874 146,149.5C 144.5,148 143,146.5 141.5,145C 140.004,144.493 138.837,144.993 138,146.5C 137.252,148.84 137.752,150.84 139.5,152.5C 139.167,152.5 138.833,152.5 138.5,152.5C 133.141,148.422 132.641,148.756 137,153.5C 137.483,154.448 137.649,155.448 137.5,156.5C 134.962,155.957 132.628,154.957 130.5,153.5C 129.047,152.175 129.381,151.342 131.5,151C 126.833,150.667 122.167,150.333 117.5,150C 119.5,149.667 121.5,149.333 123.5,149C 120.167,148.667 116.833,148.333 113.5,148C 116.833,147 120.167,146 123.5,145C 120.167,144.667 116.833,144.333 113.5,144C 115.5,143.667 117.5,143.333 119.5,143C 113.5,142.667 107.5,142.333 101.5,142C 103.5,141.667 105.5,141.333 107.5,141C 99.5,140.333 99.5,139.667 107.5,139C 100.167,138.667 92.8333,138.333 85.5,138C 87.5,137.667 89.5,137.333 91.5,137C 78.1667,136.333 78.1667,135.667 91.5,135C 85.5,134.667 79.5,134.333 73.5,134C 75.5,133.667 77.5,133.333 79.5,133C 76.1667,132.667 72.8333,132.333 69.5,132C 71.5,131.667 73.5,131.333 75.5,131C 69.5,130.667 63.5,130.333 57.5,130C 59.5,129.667 61.5,129.333 63.5,129C 60.1667,128.667 56.8333,128.333 53.5,128C 55.7078,127.809 57.7078,127.309 59.5,126.5 Z"/></g>
<g><path style="opacity:1" fill="#48a44c" d="M -0.5,142.5 C 4.84372,142.334 10.1771,142.501 15.5,143C 13.5,143.333 11.5,143.667 9.5,144C 12.8333,144.333 16.1667,144.667 19.5,145C 17.5,145.333 15.5,145.667 13.5,146C 19.5,146.333 25.5,146.667 31.5,147C 23.5272,147.826 23.5272,148.326 31.5,148.5C 30.8592,149.482 30.1925,150.482 29.5,151.5C 31.8405,154.886 34.5071,157.22 37.5,158.5C 37.0233,157.522 36.3567,156.689 35.5,156C 37.8633,155.411 38.8633,153.911 38.5,151.5C 38.5,151.167 38.5,150.833 38.5,150.5C 39.391,151.11 40.391,151.443 41.5,151.5C 43.2922,152.309 45.2922,152.809 47.5,153C 46.8333,153.333 46.1667,153.667 45.5,154C 50.1667,154.333 54.8333,154.667 59.5,155C 58.1667,155.333 56.8333,155.667 55.5,156C 58.1667,156.333 60.8333,156.667 63.5,157C 62.8333,157.333 62.1667,157.667 61.5,158C 66.1667,158.333 70.8333,158.667 75.5,159C 73.5,159.333 71.5,159.667 69.5,160C 72.8333,160.333 76.1667,160.667 79.5,161C 77.5,161.333 75.5,161.667 73.5,162C 74.5266,162.513 75.5266,163.013 76.5,163.5C 78.3379,164.678 80.0045,164.345 81.5,162.5C 84.8499,162.335 88.1832,162.502 91.5,163C 89.5,163.333 87.5,163.667 85.5,164C 88.8333,164.333 92.1667,164.667 95.5,165C 93.5,165.333 91.5,165.667 89.5,166C 94.1667,166.333 98.8333,166.667 103.5,167C 102.833,167.333 102.167,167.667 101.5,168C 103.5,168.333 105.5,168.667 107.5,169C 106.167,169.333 104.833,169.667 103.5,170C 108.833,170.333 114.167,170.667 119.5,171C 118.833,171.333 118.167,171.667 117.5,172C 119.5,172.333 121.5,172.667 123.5,173C 122.167,173.333 120.833,173.667 119.5,174C 124.833,174.333 130.167,174.667 135.5,175C 133.5,175.333 131.5,175.667 129.5,176C 132.167,176.333 134.833,176.667 137.5,177C 136.167,177.333 134.833,177.667 133.5,178C 139.5,178.333 145.5,178.667 151.5,179C 149.5,179.333 147.5,179.667 145.5,180C 148.167,180.333 150.833,180.667 153.5,181C 152.167,181.333 150.833,181.667 149.5,182C 154.167,182.333 158.833,182.667 163.5,183C 162.167,183.333 160.833,183.667 159.5,184C 162.167,184.333 164.833,184.667 167.5,185C 165.5,185.333 163.5,185.667 161.5,186C 167.5,186.333 173.5,186.667 179.5,187C 177.5,187.333 175.5,187.667 173.5,188C 176.833,188.333 180.167,188.667 183.5,189C 181.5,189.333 179.5,189.667 177.5,190C 182.833,190.333 188.167,190.667 193.5,191C 192.167,191.333 190.833,191.667 189.5,192C 191.5,192.333 193.5,192.667 195.5,193C 194.833,193.333 194.167,193.667 193.5,194C 198.833,194.333 204.167,194.667 209.5,195C 208.167,195.333 206.833,195.667 205.5,196C 207.5,196.333 209.5,196.667 211.5,197C 210.584,197.278 209.918,197.778 209.5,198.5C 140.5,198.5 71.5,198.5 2.5,198.5C 1.30766,196.887 0.307663,195.22 -0.5,193.5C -0.5,176.5 -0.5,159.5 -0.5,142.5 Z"/></g>
<g><path style="opacity:1" fill="#bbdbbd" d="M 41.5,151.5 C 40.391,151.443 39.391,151.11 38.5,150.5C 37.5244,149.185 36.5244,147.852 35.5,146.5C 36.1449,145.354 36.9783,144.354 38,143.5C 38.533,146.505 39.6996,149.172 41.5,151.5 Z"/></g>
<g><path style="opacity:1" fill="#cfe6d1" d="M 189.5,143.5 C 190.766,144.09 192.099,144.59 193.5,145C 193.167,145.333 192.833,145.667 192.5,146C 193.878,147.713 195.545,149.047 197.5,150C 194.802,149.516 192.135,148.683 189.5,147.5C 189.5,146.167 189.5,144.833 189.5,143.5 Z"/></g>
<g><path style="opacity:1" fill="#cee5d0" d="M 144.5,155.5 C 143.761,155.631 143.094,155.464 142.5,155C 144.255,154.28 145.089,153.113 145,151.5C 143.3,153.299 141.467,153.632 139.5,152.5C 137.752,150.84 137.252,148.84 138,146.5C 138.837,144.993 140.004,144.493 141.5,145C 143,146.5 144.5,148 146,149.5C 146.743,151.874 146.243,153.874 144.5,155.5 Z"/></g>
<g><path style="opacity:1" fill="#5daf60" d="M 139.5,146.5 C 142.297,146.967 143.631,148.633 143.5,151.5C 139.745,151.437 138.412,149.77 139.5,146.5 Z"/></g>
<g><path style="opacity:1" fill="#c2dfc5" d="M 87.5,144.5 C 90.6238,144.943 92.9571,146.61 94.5,149.5C 94.1667,149.833 93.8333,150.167 93.5,150.5C 91.8333,149.167 90.1667,147.833 88.5,146.5C 88.1667,147 87.8333,147.5 87.5,148C 88.4394,149.944 89.7727,151.611 91.5,153C 88.7348,152.28 86.4015,150.613 84.5,148C 86.0557,147.28 87.0557,146.113 87.5,144.5 Z"/></g>
<g><path style="opacity:1" fill="#c7e1c9" d="M 138.5,152.5 C 138.953,153.458 139.619,154.292 140.5,155C 136.548,159.753 133.215,159.253 130.5,153.5C 132.628,154.957 134.962,155.957 137.5,156.5C 137.649,155.448 137.483,154.448 137,153.5C 132.641,148.756 133.141,148.422 138.5,152.5 Z"/></g>
<g><path style="opacity:1" fill="#c7e2c9" d="M 242.5,144.5 C 247.629,145.614 247.629,146.281 242.5,146.5C 243.643,152.268 245.309,152.602 247.5,147.5C 248.747,149.006 248.747,150.506 247.5,152C 243.39,150.371 240.39,151.538 238.5,155.5C 239.325,156.386 240.325,156.719 241.5,156.5C 241.281,155.325 241.614,154.325 242.5,153.5C 243.998,156.133 243.165,157.466 240,157.5C 235.817,156.914 234.65,154.747 236.5,151C 237.793,150.51 239.127,150.343 240.5,150.5C 240.253,148.142 240.919,146.142 242.5,144.5 Z"/></g>
<g><path style="opacity:1" fill="#b8daba" d="M 82.5,149.5 C 84.797,150.835 86.797,152.668 88.5,155C 85.431,159.667 82.431,159.501 79.5,154.5C 79.8333,154.167 80.1667,153.833 80.5,153.5C 81.8333,154.5 83.1667,155.5 84.5,156.5C 84.8333,156 85.1667,155.5 85.5,155C 84.259,153.269 83.259,151.436 82.5,149.5 Z"/></g>
<g><path style="opacity:1" fill="#7dbf7f" d="M 237.5,151.5 C 239.657,152.053 239.49,153.053 237,154.5C 236.53,153.423 236.697,152.423 237.5,151.5 Z"/></g>
<g><path style="opacity:1" fill="#cbe3cd" d="M 81.5,162.5 C 80.0045,164.345 78.3379,164.678 76.5,163.5C 77.5676,162.566 78.901,162.232 80.5,162.5C 79.564,159.041 77.564,156.207 74.5,154C 78.754,155.1 81.0873,157.933 81.5,162.5 Z"/></g>
<g><path style="opacity:1" fill="#c5e0c8" d="M 31.5,148.5 C 34.4534,148.15 36.7867,149.15 38.5,151.5C 38.8633,153.911 37.8633,155.411 35.5,156C 36.3567,156.689 37.0233,157.522 37.5,158.5C 34.5071,157.22 31.8405,154.886 29.5,151.5C 30.1925,150.482 30.8592,149.482 31.5,148.5 Z"/></g>
<g><path style="opacity:1" fill="#53a956" d="M 32.5,149.5 C 35.2974,149.967 36.6308,151.633 36.5,154.5C 33.0897,154.616 31.7564,152.95 32.5,149.5 Z"/></g>
<g><path style="opacity:1" fill="#c3dfc5" d="M 23.5,153.5 C 27.1867,154.176 30.5201,155.676 33.5,158C 32.451,158.492 31.451,158.326 30.5,157.5C 29.2048,159.328 28.2048,161.328 27.5,163.5C 25.5988,160.369 24.2655,157.035 23.5,153.5 Z"/></g>
<g><path style="opacity:1" fill="#58ac5c" d="M 25.5,156.5 C 26.4971,155.287 27.4971,155.454 28.5,157C 27.2805,158.795 26.2805,158.628 25.5,156.5 Z"/></g>
<g><path style="opacity:1" fill="#c4e0c7" d="M 178.5,159.5 C 178.5,158.833 178.167,158.5 177.5,158.5C 177.138,151.996 179.638,150.329 185,153.5C 184.797,149.363 186.63,147.863 190.5,149C 189.552,149.483 188.552,149.649 187.5,149.5C 186.756,152.95 188.09,154.616 191.5,154.5C 191.281,153.325 191.614,152.325 192.5,151.5C 193.731,152.651 193.731,153.817 192.5,155C 190.559,155.743 188.726,155.576 187,154.5C 187.63,161.57 184.797,163.237 178.5,159.5 Z"/></g>
<g><path style="opacity:1" fill="#57ac5a" d="M 179.5,153.5 C 184.486,153.305 186.152,155.472 184.5,160C 180.194,160.172 178.527,158.006 179.5,153.5 Z"/></g>
<g><path style="opacity:1" fill="#c0dfc3" d="M 228.5,154.5 C 235.803,154.602 237.803,157.769 234.5,164C 230.616,163.641 227.949,161.475 226.5,157.5C 227.193,156.482 227.859,155.482 228.5,154.5 Z"/></g>
<g><path style="opacity:1" fill="#52ab56" d="M 229.5,155.5 C 234.181,155.876 235.515,158.209 233.5,162.5C 230.184,160.944 228.851,158.611 229.5,155.5 Z"/></g>
<g><path style="opacity:1" fill="#c3e0c6" d="M 124.5,155.5 C 128.362,156.428 132.029,157.928 135.5,160C 134.101,160.595 132.768,160.428 131.5,159.5C 130.205,161.328 129.205,163.328 128.5,165.5C 126.599,162.369 125.265,159.035 124.5,155.5 Z"/></g>
<g><path style="opacity:1" fill="#5bae5e" d="M 126.5,158.5 C 127.497,157.287 128.497,157.454 129.5,159C 128.281,160.795 127.281,160.628 126.5,158.5 Z"/></g>
<g><path style="opacity:1" fill="#dce8dc" d="M -0.5,193.5 C 0.307663,195.22 1.30766,196.887 2.5,198.5C 1.5,198.5 0.5,198.5 -0.5,198.5C -0.5,196.833 -0.5,195.167 -0.5,193.5 Z"/></g>
<g><path style="opacity:1" fill="#dce8dc" d="M 281.5,193.5 C 281.5,195.167 281.5,196.833 281.5,198.5C 280.5,198.5 279.5,198.5 278.5,198.5C 279.692,196.887 280.692,195.22 281.5,193.5 Z"/></g>
</svg>
